<svg width="24" height="24" viewBox="0 0 24 24" fill="none" xmlns="http://www.w3.org/2000/svg">
<g clip-path="url(#clip0_1_1981)">
<path d="M12.5285 10.5938C12.2121 11.5309 11.3721 12.1003 10.448 12.1003C10.3 12.1003 10.1549 12.0655 10.0095 12.0357L11.1319 13.7194C11.3475 14.0428 11.2603 14.4788 10.9369 14.6944C10.6084 14.9122 10.174 14.818 9.96188 14.4994L8.4375 12.2129V20.4375H21.8906C23.0538 20.4375 24 19.4913 24 18.3281V10.5938H12.5285ZM20.4844 17.625H14.7656C14.377 17.625 14.0625 17.3105 14.0625 16.9219C14.0625 16.5332 14.377 16.2188 14.7656 16.2188H20.4844C20.873 16.2188 21.1875 16.5332 21.1875 16.9219C21.1875 17.3105 20.873 17.625 20.4844 17.625ZM20.4844 14.8125H14.7656C14.377 14.8125 14.0625 14.498 14.0625 14.1094C14.0625 13.7207 14.377 13.4062 14.7656 13.4062H20.4844C20.873 13.4062 21.1875 13.7207 21.1875 14.1094C21.1875 14.498 20.873 14.8125 20.4844 14.8125Z" fill="#F599A7"/>
<path d="M10.0018 9.22174L9 9.88985L10.0018 10.558C10.5352 10.9135 11.2481 10.5315 11.2481 9.89055C11.2481 9.24673 10.5331 8.86755 10.0018 9.22174Z" fill="#F599A7"/>
<path d="M2.10938 3.5625C0.946219 3.5625 0 4.50872 0 5.67188V9.1875H2.94028C3.41587 7.77877 5.05181 7.25775 6.24502 8.05247L7.03125 8.57672V3.5625H2.10938Z" fill="#F599A7"/>
<path d="M21.8906 3.5625H8.4375V8.57672L9.22369 8.05247C10.4043 7.26375 12.0499 7.76836 12.5287 9.1875H24V5.67188C24 4.50872 23.0538 3.5625 21.8906 3.5625Z" fill="#F599A7"/>
<path d="M5.46502 9.2221C4.93087 8.86599 4.21875 9.25027 4.21875 9.88951C4.21875 10.5307 4.92909 10.915 5.46502 10.5583L6.46683 9.89021L5.46502 9.2221Z" fill="#F599A7"/>
<path d="M5.50688 14.4994C5.29125 14.8214 4.85527 14.9072 4.53183 14.6944C4.20844 14.4787 4.1212 14.0428 4.33683 13.7193L5.45925 12.0357C5.31384 12.0654 5.16872 12.1002 5.02073 12.1002C4.09444 12.1002 3.25538 11.5286 2.93995 10.5937H0V18.3281C0 19.4913 0.946219 20.4375 2.10938 20.4375H7.03125V12.2128L5.50688 14.4994Z" fill="#F599A7"/>
</g>
<defs>
<clipPath id="clip0_1_1981">
<rect width="24" height="24" fill="white"/>
</clipPath>
</defs>
</svg>
