<svg width="16" height="16" viewBox="0 0 16 16" fill="none" xmlns="http://www.w3.org/2000/svg">
<path d="M10.7091 8.7809C10.9771 9.87036 11.4237 10.5197 12.3091 11.2967C12.7301 11.7703 13.343 12.2027 13.3163 12.9056C13.2962 13.7444 12.2838 14.049 11.5871 13.628C10.3543 15.0393 9.75228 13.7948 8.95678 14.4886C8.36428 14.8945 7.379 14.6597 6.87465 14.1614C6.84171 14.1284 6.73821 14.1175 6.70209 14.1438C6.01515 14.6441 4.879 14.2126 4.52428 13.6978C4.44481 13.5825 4.3735 13.5782 4.25128 13.6093C3.58784 13.8514 2.5009 13.3534 2.71496 12.5475C2.93643 11.853 3.54446 11.4141 4.07478 10.9586C4.75312 10.4017 5.35096 9.79152 5.63453 8.9303C5.66465 8.83877 5.79621 8.78308 5.87462 8.70465C6.87915 7.70458 8.3469 7.92258 9.62706 8.01821C10.0217 8.05702 10.4412 8.27024 10.6041 8.65465C10.6222 8.64136 10.6884 8.70886 10.7091 8.7809Z" fill="#018667"/>
<path d="M11.5871 13.1168C10.3543 14.5281 9.75228 13.2836 8.95678 13.9774C8.36428 14.3833 7.379 14.1485 6.87465 13.6502C6.84171 13.6172 6.73821 13.6063 6.70209 13.6326C6.01515 14.133 4.879 13.7014 4.52428 13.1866C4.44481 13.0713 4.3735 13.067 4.25128 13.0981C3.72478 13.2902 2.93165 13.0163 2.73359 12.4922C2.72712 12.5104 2.72087 12.5287 2.71496 12.5472C2.5009 13.3531 3.58784 13.8512 4.25128 13.6091C4.37346 13.578 4.44481 13.5823 4.52428 13.6976C4.87903 14.2123 6.01515 14.6439 6.70209 14.1436C6.73821 14.1173 6.84175 14.1282 6.87465 14.1612C7.379 14.6595 8.36428 14.8942 8.95678 14.4884C9.75228 13.7946 10.3543 15.0391 11.5871 13.6278C12.2838 14.0488 13.2962 13.7442 13.3163 12.9054C13.3203 12.8001 13.3099 12.7008 13.288 12.6065C13.1176 13.2818 12.2215 13.5002 11.5871 13.1168Z" fill="#017758"/>
<path d="M10.5817 9.73656C9.84909 10.4611 8.99281 10.6679 8.09084 10.1082C7.701 9.83553 7.57794 10.6193 6.36512 10.3718C5.47094 10.2393 5.37119 9.70763 5.1265 9.87431C4.81278 10.0231 4.50984 10.2104 4.14359 10.1966C3.73016 10.205 3.29722 10.0309 3.29688 9.55519C3.31284 8.16175 5.88222 7.2751 6.49528 5.80256C6.68622 5.56038 6.98119 5.41375 7.23872 5.25238C8.58991 4.4325 9.48137 5.72181 10.146 6.74394C10.6069 7.27581 11.1054 7.7501 11.6838 8.1506C11.9623 8.34347 12.2255 8.5705 12.4548 8.81972C13.0919 9.46941 12.3704 10.4286 11.5823 10.1709C11.2315 10.0557 10.9011 9.87791 10.5817 9.73656Z" fill="#018667"/>
<path d="M11.5823 9.7217C11.2314 9.60645 10.9011 9.42873 10.5817 9.28739C9.84909 10.0119 8.99281 10.2187 8.09084 9.65898C7.701 9.38636 7.57794 10.1701 6.36512 9.92264C5.47094 9.79017 5.37119 9.25845 5.1265 9.42514C4.81278 9.57392 4.50984 9.76123 4.14359 9.74742C3.80166 9.75436 3.44637 9.63645 3.33353 9.32636C3.31062 9.41602 3.29794 9.50761 3.29688 9.60152C3.29722 10.0772 3.73016 10.2513 4.14359 10.2429C4.50981 10.2567 4.81278 10.0695 5.1265 9.92064C5.37119 9.75395 5.47094 10.2857 6.36512 10.4181C7.57797 10.6656 7.701 9.88186 8.09084 10.1545C8.99278 10.7142 9.84909 10.5074 10.5817 9.78289C10.9011 9.92423 11.2314 10.102 11.5823 10.2172C12.2494 10.4353 12.8687 9.78155 12.6568 9.18164C12.5187 9.58342 12.0629 9.87883 11.5823 9.7217Z" fill="#017758"/>
<path d="M10.0464 6.67693C9.75119 6.59368 9.44403 6.50184 9.13353 6.42312C9.05491 6.40318 8.94131 6.39187 8.88509 6.43303C8.33763 6.83356 7.802 6.72831 7.27738 6.40178C7.11516 6.30081 6.97338 6.29662 6.79009 6.32881C6.46847 6.38531 6.1385 6.40475 5.81122 6.41493C5.35628 6.43246 4.65263 5.91221 5.10875 5.46334C5.82806 4.82828 6.75888 4.45062 7.273 3.58956C7.57834 2.98087 7.9975 2.66956 8.66131 3.02506C9.21106 3.3389 9.39766 3.98881 9.73669 4.48756C10.0793 5.18165 10.962 5.31346 11.0218 5.89971C11.1137 6.50059 10.5145 6.58953 10.0464 6.67693Z" fill="#018667"/>
<path d="M11.0219 5.8998C11.0189 5.87058 11.0139 5.84252 11.007 5.81542C10.9036 6.17567 10.4285 6.2488 10.0425 6.32089C9.7473 6.23764 9.44015 6.1458 9.12965 6.06708C9.05102 6.04714 8.93743 6.03583 8.88121 6.07698C8.33374 6.47752 7.79812 6.37227 7.27349 6.04573C7.11127 5.94477 6.96949 5.94058 6.78621 5.97277C6.46459 6.02927 6.13458 6.0487 5.80733 6.05889C5.52052 6.06995 5.13493 5.86727 5.0033 5.60352C4.79471 6.01361 5.40302 6.43077 5.81121 6.41505C6.13846 6.40486 6.46846 6.38542 6.79008 6.32892C6.97333 6.29673 7.11512 6.30092 7.27737 6.40189C7.80199 6.72842 8.33758 6.83367 8.88508 6.43314C8.94133 6.39198 9.0549 6.4033 9.13352 6.42323C9.44402 6.50195 9.75118 6.5938 10.0464 6.67705C10.5145 6.58961 11.1137 6.50067 11.0219 5.8998Z" fill="#017758"/>
<path d="M6.4479 7.74357C6.371 8.73585 5.76484 9.59113 5.36156 10.4768C5.27484 10.6335 5.20456 10.8118 5.0655 10.9299C4.9639 11.0104 4.836 10.9593 4.80978 10.8321C4.78431 10.7083 4.81984 10.5915 4.85715 10.4756C5.0144 9.79057 6.38143 7.78841 5.77212 7.32419C5.60409 7.19535 5.34828 7.23119 5.22259 7.40229C5.12384 7.53179 5.05565 7.70529 4.88712 7.75735C4.76306 7.79947 4.64634 7.71407 4.64847 7.58191C4.67247 7.35226 4.85637 7.07285 5.01984 6.91119C5.68803 6.35526 6.47822 6.94735 6.4479 7.74357Z" fill="#E2DDD5"/>
<path d="M6.11963 8.94141C6.11469 8.944 6.10981 8.94681 6.10494 8.94984C5.879 9.11166 5.63372 9.23369 5.37019 9.30809C5.28525 9.48309 5.20075 9.65331 5.125 9.81125C5.12934 9.81253 5.13375 9.81375 5.13831 9.81481C5.18656 9.82831 5.23834 9.82922 5.28853 9.83588C5.46975 9.84425 5.62125 9.78025 5.75669 9.68453C5.88413 9.43956 6.01034 9.19303 6.11963 8.94141Z" fill="#FF3213"/>
<path d="M6.43094 7.91406C6.38678 7.93441 6.34231 7.967 6.30663 8.00156C6.14278 8.14463 5.96956 8.27466 5.78094 8.37981C5.72372 8.53928 5.65375 8.70616 5.57812 8.87422C5.80572 8.80091 6.06638 8.70784 6.27147 8.56297C6.34409 8.35194 6.40009 8.13628 6.43094 7.91406Z" fill="#FF3213"/>
<path d="M5.00519 10.173C4.99384 10.1734 4.97747 10.1738 4.95791 10.1746C4.90941 10.2904 4.87288 10.392 4.85394 10.4746C4.834 10.5366 4.81456 10.5988 4.80469 10.6623C4.85463 10.6738 4.90881 10.6795 4.96403 10.6793C5.07953 10.6677 5.18966 10.6405 5.29381 10.5985C5.31519 10.5572 5.33622 10.5158 5.35831 10.4759C5.42816 10.3225 5.50409 10.17 5.58228 10.0176C5.54378 10.0341 5.50609 10.0535 5.47453 10.0616C5.32313 10.1194 5.17344 10.1774 5.00519 10.173Z" fill="#FF3213"/>
<path d="M6.1775 6.97656C6.17094 6.98512 6.16478 6.99484 6.15919 7.00581C6.14272 7.03675 6.13022 7.06987 6.11706 7.1025C6.05859 7.24772 5.98603 7.38475 5.89862 7.5125C5.94175 7.64937 5.93003 7.82763 5.88281 8.02994C5.98894 7.97294 6.08812 7.89369 6.15469 7.82572C6.19816 7.78375 6.32547 7.61416 6.41822 7.44588C6.37662 7.26416 6.2915 7.10284 6.1775 6.97656Z" fill="#FF3213"/>
<path d="M5.19531 6.7932C5.20372 6.81467 5.21428 6.8357 5.22556 6.85489C5.29375 6.99227 5.34856 7.13308 5.37637 7.2813C5.48797 7.23189 5.62147 7.23439 5.73006 7.29508C5.73031 7.29355 5.73053 7.29205 5.73078 7.29058C5.72666 7.02692 5.67944 6.88855 5.5675 6.69336C5.44591 6.69492 5.31991 6.72623 5.19531 6.7932Z" fill="#FF3213"/>
<path d="M4.67969 7.45064C4.7195 7.4628 4.76397 7.47802 4.80497 7.50939C4.88059 7.5457 4.92409 7.63927 4.96731 7.72114C5.06056 7.66155 5.11831 7.55955 5.18059 7.4657C5.11187 7.31927 4.99187 7.20002 4.84959 7.11914C4.77778 7.22264 4.71522 7.33864 4.67969 7.45064Z" fill="#FF3213"/>
<path d="M4.87441 7.31748C4.9395 7.12857 5.10566 6.98895 5.292 6.92708C5.31553 6.91926 5.30544 6.88186 5.28172 6.88976C5.08184 6.95614 4.90678 7.10489 4.83709 7.3072C4.82894 7.33079 4.86631 7.34092 4.87441 7.31748Z" fill="white"/>
<path d="M4.3365 10.2441C4.40722 10.4869 4.56757 10.9459 4.66969 11.1772C4.77635 11.4189 4.89994 11.6552 5.05282 11.871C5.19225 12.0679 5.35888 12.2462 5.574 12.3608C5.77779 12.4693 6.01372 12.5142 6.24097 12.4639C6.342 12.4416 6.43729 12.4024 6.52369 12.35C6.58863 12.4283 6.66041 12.501 6.73594 12.5667C6.90638 12.7149 7.11491 12.8395 7.34388 12.8614C7.455 12.872 7.56769 12.8553 7.67013 12.8106C7.76744 12.7682 7.84638 12.6966 7.91085 12.6134C8.04988 12.434 8.12954 12.2179 8.28544 12.0503C8.46454 11.8577 8.71904 11.7144 8.98669 11.7996C9.12335 11.8431 9.23841 11.933 9.36757 11.9928C9.48669 12.048 9.61713 12.0745 9.74835 12.0706C10.0212 12.0624 10.2715 11.9349 10.4876 11.7768C10.9137 11.4649 11.2943 11.0838 11.5706 10.6317C11.6392 10.5196 11.7047 10.3918 11.7593 10.2722C11.766 10.2576 11.7443 10.2448 11.7376 10.2595C11.5243 10.7264 11.1962 11.1446 10.8128 11.4834C10.4336 11.8185 9.90922 12.2159 9.38029 11.9711C9.26197 11.9163 9.15588 11.8377 9.03416 11.7899C8.92313 11.7462 8.802 11.7367 8.68591 11.7647C8.46782 11.8174 8.28272 11.9869 8.15825 12.1677C8.03822 12.3419 7.96135 12.5519 7.80113 12.696C7.62854 12.8513 7.38194 12.8692 7.16888 12.7978C6.94625 12.7233 6.75385 12.5684 6.59829 12.396C6.5805 12.3763 6.56322 12.3562 6.54635 12.3358C6.83497 12.1494 7.01757 11.8119 6.97013 11.4577C6.94104 11.2405 6.82022 11.0237 6.6306 10.9073C6.50325 10.8291 6.30179 10.799 6.18307 10.9119C6.0925 10.9981 6.08188 11.1388 6.08882 11.2561C6.09807 11.4124 6.13907 11.5667 6.18907 11.7145C6.232 11.8414 6.2826 11.9672 6.34532 12.0856C6.39069 12.1713 6.44557 12.2531 6.50713 12.3297C6.31422 12.4442 6.08794 12.4867 5.86619 12.4411C5.63291 12.393 5.42407 12.2598 5.26119 12.0887C5.09357 11.9127 4.96213 11.7014 4.84816 11.4878C4.72682 11.2603 4.62504 11.0224 4.53847 10.7797C4.5006 10.6735 4.39229 10.3456 4.36076 10.2373C4.35626 10.2219 4.33194 10.2284 4.3365 10.2441ZM6.32679 11.9916C6.26641 11.8625 6.216 11.728 6.17682 11.5909C6.13672 11.4508 6.10429 11.302 6.11394 11.1554C6.12157 11.0398 6.16572 10.9199 6.28466 10.8802C6.49951 10.8084 6.70919 10.9619 6.82291 11.1334C6.94457 11.3169 6.97985 11.5462 6.93107 11.7597C6.87976 11.9843 6.74157 12.1747 6.55094 12.3022C6.54404 12.3068 6.53704 12.3113 6.53004 12.3158C6.44994 12.2159 6.38116 12.1079 6.32679 11.9916Z" fill="#003F2E"/>
<path d="M10.1045 12.1429C10.0079 12.1655 9.92873 12.0214 10.103 11.9743C10.1521 11.961 10.1856 11.9848 10.1999 12.043C10.209 12.0797 10.1625 12.1283 10.1045 12.1429Z" fill="#003F2E"/>
<path d="M8.62798 11.8089C8.53129 11.8315 8.45217 11.6874 8.62645 11.6403C8.67557 11.627 8.70901 11.6509 8.72339 11.709C8.73245 11.7457 8.68595 11.7944 8.62798 11.8089Z" fill="#003F2E"/>
<path d="M7.69048 12.9495C7.59379 12.9722 7.51467 12.828 7.68895 12.7809C7.73807 12.7676 7.77151 12.7915 7.78588 12.8497C7.79495 12.8863 7.74845 12.935 7.69048 12.9495Z" fill="#003F2E"/>
<path d="M5.38133 12.401C5.3159 12.3263 5.40596 12.1887 5.52946 12.3204C5.56427 12.3575 5.55893 12.3983 5.51433 12.4383C5.48621 12.4635 5.4214 12.4453 5.38133 12.401Z" fill="#003F2E"/>
<path d="M4.77135 12.2878C5.02085 12.1735 5.401 12.1719 5.50728 12.4739C5.55307 12.6026 5.52657 12.7088 5.39447 12.8255C5.10697 13.0753 4.6815 13.0247 4.35078 12.8934C3.97822 12.7323 4.60444 12.3588 4.77135 12.2878Z" fill="#D5AD56"/>
<path d="M4.84653 12.7613C5.0065 12.7677 5.1586 12.72 5.29331 12.6351C5.307 12.6265 5.29131 12.6068 5.27772 12.6154C5.14922 12.6963 5.00241 12.7425 4.84978 12.7364C4.83372 12.7357 4.83035 12.7607 4.84653 12.7613Z" fill="white"/>
<path d="M10.1466 12.8631C9.95194 12.6697 9.81684 12.3143 10.0622 12.1087C10.1667 12.0206 10.2753 12.0081 10.431 12.0907C10.7659 12.2721 10.8681 12.6882 10.8614 13.044C10.8415 13.4494 10.2717 12.9944 10.1466 12.8631Z" fill="#FF3213"/>
<path d="M10.6596 12.6481C10.6067 12.4972 10.5059 12.3734 10.3775 12.2797C10.3644 12.2702 10.3519 12.292 10.3648 12.3014C10.4876 12.391 10.5848 12.5105 10.6354 12.6547C10.6407 12.6699 10.665 12.6634 10.6596 12.6481Z" fill="white"/>
<path d="M7.41091 13.6058C7.32045 13.3468 7.35445 12.9681 7.66507 12.8905C7.79748 12.857 7.90069 12.8933 8.00451 13.0357C8.22635 13.3453 8.13623 13.7642 7.97457 14.0812C7.77932 14.4371 7.46604 13.7787 7.41091 13.6058Z" fill="#00A99D"/>
<path d="M7.96191 13.5708C7.97094 13.4126 7.92566 13.2598 7.84394 13.1251C7.83556 13.1113 7.81378 13.1239 7.82222 13.1378C7.90181 13.269 7.94556 13.4168 7.93675 13.5708C7.93581 13.587 7.96097 13.587 7.96191 13.5708Z" fill="white"/>
<path d="M8.46041 10.9354C8.67907 11.1012 8.86019 11.4354 8.64432 11.6719C8.55257 11.7731 8.44648 11.7999 8.28123 11.7387C7.92516 11.6035 7.76857 11.2046 7.72791 10.8511C7.69373 10.4466 8.31888 10.8219 8.46041 10.9354Z" fill="#F8E19E"/>
<path d="M8.53822 11.3344C8.47406 11.1896 8.36372 11.0746 8.22959 10.9922C8.21575 10.9837 8.20309 11.0054 8.21691 11.0139C8.34769 11.0942 8.454 11.206 8.5165 11.3471C8.52303 11.3619 8.54475 11.3491 8.53822 11.3344Z" fill="white"/>
<path d="M8.08971 7.50748C8.07806 8.14664 7.07359 8.37402 6.9574 7.66498C6.87474 6.7542 8.01715 6.61698 8.08971 7.50748Z" fill="#D5AD56"/>
<path d="M7.42037 7.11194C7.28759 7.27038 7.22409 7.47781 7.25984 7.68281C7.26412 7.70731 7.30143 7.69694 7.29715 7.67253C7.26397 7.48232 7.32459 7.28625 7.44772 7.13935C7.46365 7.12035 7.4364 7.09281 7.42037 7.11194Z" fill="white"/>
<path d="M9.66003 4.9938C9.64837 5.63296 8.6439 5.86033 8.52771 5.1513C8.44506 4.24055 9.58746 4.1033 9.66003 4.9938Z" fill="#F8E19E"/>
<path d="M8.98287 4.59827C8.85009 4.75671 8.78659 4.96414 8.82234 5.16914C8.82662 5.19364 8.86393 5.18327 8.85965 5.15886C8.82647 4.96864 8.88709 4.77258 9.01022 4.62567C9.02615 4.60667 8.9989 4.57914 8.98287 4.59827Z" fill="white"/>
<path d="M7.13658 4.39811C7.12493 5.03727 6.12046 5.26464 6.00427 4.55561C5.92165 3.64483 7.06405 3.50761 7.13658 4.39811Z" fill="#FF3213"/>
<path d="M6.46725 4.00257C6.33447 4.16101 6.27097 4.36844 6.30672 4.57344C6.311 4.59794 6.34831 4.58757 6.34403 4.56316C6.31084 4.37294 6.37147 4.17688 6.49459 4.02998C6.51053 4.01094 6.48328 3.98344 6.46725 4.00257Z" fill="white"/>
<path d="M11.2795 9.82967C10.7923 9.33648 10.4172 9.07998 9.97747 9.06445C9.96037 9.07345 9.95572 9.10517 9.95006 9.12086C9.85541 9.12852 9.65153 9.15195 9.63934 9.15308C9.59772 9.1653 9.56088 9.19717 9.52428 9.22577C9.26675 9.41945 8.85875 10.1535 8.85156 10.7111C8.92387 10.7717 9.09478 10.358 9.17303 10.41C9.23381 10.4617 9.23031 10.9679 9.30319 11.0112C9.31641 11.0263 9.33091 11.0038 9.33603 10.9447C9.39203 10.3591 9.58613 9.68977 9.88888 9.41586C10.286 9.5053 10.7853 9.99514 11.1203 10.4773C11.1538 10.5262 11.1774 10.5388 11.1816 10.5192C11.2238 10.4456 10.9726 10.0063 11.0002 9.93139C11.043 9.84773 11.3946 10.1244 11.428 10.0362C11.4489 10.009 11.3277 9.88305 11.2795 9.82967Z" fill="#FF3213"/>
<path d="M10.1165 9.0716C10.0706 9.06463 10.0228 9.05492 9.98059 9.06467C9.96347 9.07379 9.95888 9.1052 9.95319 9.12104C9.91719 9.12395 9.86537 9.12917 9.81434 9.13454C9.81384 9.13535 9.81331 9.13617 9.81281 9.13698C9.81172 9.13635 9.81066 9.1357 9.80956 9.13504C9.72809 9.14367 9.64987 9.15257 9.64247 9.15326C9.41391 9.27576 9.28778 9.47379 9.13281 9.75763C9.42178 9.71898 9.68537 9.6151 9.88734 9.36473C10.1414 9.51076 10.4642 9.42826 10.7254 9.34442C10.5046 9.19529 10.297 9.10598 10.1165 9.0716Z" fill="#DD1B07"/>
<path d="M9.79862 9.07847C9.98174 8.79594 10.1358 8.50701 10.3633 8.26157C10.5029 8.09048 10.7976 7.99335 10.8447 8.29104C10.8519 8.34129 10.854 8.39269 10.866 8.44172C10.8895 8.53707 10.9281 8.56472 11.0276 8.56794C11.4786 8.61057 11.0739 9.15719 10.8364 9.23063C10.546 9.35923 10.1698 9.46626 9.87318 9.30626C9.57756 9.67813 8.85549 9.87991 8.47209 9.56766C8.35187 9.47519 8.33224 9.32085 8.47624 9.24044C8.57718 9.17973 8.59803 9.12588 8.55968 9.01469C8.4634 8.83829 8.44668 8.62104 8.69996 8.60785C9.10378 8.63423 9.45399 8.88785 9.79862 9.07847Z" fill="#FF3213"/>
<path d="M9.3912 9.07881C9.51026 9.08838 9.68192 9.108 9.79376 9.08019C9.45017 8.88909 9.0987 8.63566 8.6957 8.60938C8.62814 8.61109 8.57513 8.63241 8.53951 8.66759C8.51763 8.73628 8.53898 8.81359 8.60629 8.87206C8.8236 9.05303 9.12217 9.05825 9.3912 9.07881Z" fill="#DD1B07"/>
<path d="M9.91681 9.01488C10.2246 8.79832 10.6006 8.66551 10.7402 8.30785C10.7668 8.22479 10.7453 8.1502 10.6913 8.10192C10.6467 8.09217 10.5954 8.09885 10.5416 8.12507C10.2032 8.32895 10.0179 8.76051 9.79688 9.07998C9.82372 9.07148 9.89334 9.03026 9.91681 9.01488Z" fill="#DD1B07"/>
<path d="M11.0262 8.56879C10.9448 8.56616 10.9041 8.54713 10.8792 8.4881C10.7947 8.63644 10.6214 8.7261 10.5215 8.86685C10.402 9.02244 10.5411 9.14882 10.7041 9.14166C10.9167 9.13288 11.0842 8.91607 11.1152 8.71813C11.1191 8.67276 11.0988 8.62557 11.1098 8.58138C11.0855 8.57404 11.0576 8.56979 11.0262 8.56879Z" fill="#FF402C"/>
<path d="M9.06575 9.24746C8.91131 9.17408 8.71947 9.18158 8.57384 9.09546C8.58378 9.19462 8.48 9.22258 8.41406 9.2883C8.44434 9.32146 8.45 9.37177 8.47534 9.40896C8.59934 9.5663 8.85172 9.67308 9.04131 9.57652C9.18666 9.50287 9.24644 9.32455 9.06575 9.24746Z" fill="#FF402C"/>
<path d="M8.25767 2.93418C7.68429 3.41849 7.37148 3.75033 7.59086 2.70727C7.59745 2.66596 7.59557 2.63961 7.56067 2.6069C7.43298 2.45377 6.97026 2.16593 7.30939 2.00421C7.59326 1.83165 7.87654 1.97899 7.92417 1.76599C8.17486 1.03393 8.34101 1.26036 8.55236 1.83911C8.58023 1.90561 8.96601 1.9279 9.06614 1.96336C9.18398 1.99602 9.3692 2.11311 9.25279 2.2464C9.16995 2.34974 9.08542 2.45552 8.98429 2.5393C8.89261 2.61527 8.86742 2.68218 8.89904 2.79983C8.91714 2.90899 9.05173 3.47052 8.82095 3.38399C8.64342 3.3524 8.30004 2.9584 8.25767 2.93418Z" fill="#FF3213"/>
<path d="M9.28778 2.15057C9.28653 2.1372 9.28272 2.12423 9.27688 2.11176C8.91556 2.10754 8.55709 2.17086 8.20137 2.22873C8.20075 2.22832 8.20009 2.22795 8.19944 2.22764C8.18009 1.92017 8.19219 1.61107 8.22797 1.30523C8.215 1.30379 8.20194 1.3052 8.18875 1.30961C8.15312 1.61542 8.14138 1.92451 8.16103 2.23189C8.16088 2.2321 8.16072 2.23229 8.16059 2.23251C7.8365 2.22417 7.51509 2.16792 7.19978 2.09464C7.1935 2.10667 7.18947 2.11901 7.1875 2.1316C7.50631 2.20626 7.83147 2.26142 8.15912 2.27123C8.06672 2.52229 7.93075 2.75517 7.77491 2.97179C7.69475 3.09626 7.60847 3.22257 7.54859 3.35914C7.55653 3.37126 7.56603 3.38007 7.57703 3.38582C7.59853 3.33873 7.62487 3.29329 7.64909 3.24926C7.82919 2.93542 8.06622 2.65329 8.18681 2.30723C8.39066 2.67867 8.56516 3.0847 8.86128 3.39289C8.878 3.39326 8.89197 3.38892 8.90356 3.3806C8.59572 3.06698 8.41859 2.64804 8.20956 2.26642C8.56603 2.20826 8.9255 2.14479 9.28778 2.15057Z" fill="white"/>
</svg>
