<svg width="12" height="14" viewBox="0 0 12 14" fill="none" xmlns="http://www.w3.org/2000/svg">
<path d="M9.0563 5.91541C9.10151 3.64216 5.64846 3.95458 6.53639 0C6.53639 0 4.21791 0.912595 4.62488 3.71204C4.76464 4.67397 4.42756 5.39335 4.42756 5.39335C4.08637 5.46323 3.55607 4.78495 3.74105 3.7367C3.74105 3.7367 2.52426 4.64519 2.52426 5.81265C2.52426 6.98011 3.08744 8.21746 3.08744 8.21746C1.68566 7.91326 1.82543 6.0223 1.82543 6.0223C1.82543 6.0223 0.9375 7.21031 0.9375 9.45069C0.9375 11.1937 2.90245 13.9767 6.07187 13.9767C9.24129 13.9767 11.7859 11.5184 11.7859 9.33148C11.7859 8.37367 11.4611 7.13633 10.7582 6.46215C10.7582 6.46215 10.8528 8.37367 9.90723 8.28323C9.90723 8.28323 10.6883 5.78799 9.87024 4.64518C9.87024 4.64518 9.4756 5.87843 9.0563 5.91541Z" fill="url(#paint0_linear_1_66)"/>
<path d="M9.05785 4.20277C9.97867 2.50502 7.69719 2.2707 7.69307 1.22656C7.69307 1.22656 7.29022 2.30358 8.25214 3.03942C9.0373 3.63548 9.05785 4.20277 9.05785 4.20277Z" fill="url(#paint1_linear_1_66)"/>
<path d="M4.22042 0.953125C3.87088 1.29855 4.35202 2.72553 3.25815 3.28891C3.25815 3.28891 2.88804 1.72212 4.22042 0.953125Z" fill="url(#paint2_linear_1_66)"/>
<path opacity="0.5" d="M1.65689 6.59605C1.35269 7.11812 0.9375 8.08415 0.9375 9.45305C0.9375 10.9823 2.88601 13.7941 6.07187 13.7941C9.18374 13.7941 11.6009 11.3975 11.6009 9.33794C11.6009 8.59389 11.3953 7.6443 10.939 6.97013C10.9062 7.39355 10.8034 7.96906 10.4869 8.26915C10.3224 8.42535 10.1169 8.49524 9.89079 8.47057L9.66059 8.45001L9.73047 8.23215C9.73869 8.21159 10.3347 6.26307 9.90313 5.10794C9.73047 5.53136 9.4345 6.07809 9.07274 6.10686L8.8672 6.12331L8.87132 5.91777C8.88776 5.06684 8.36569 4.61466 7.7614 4.09258C6.89814 3.34442 5.92388 2.4976 6.28152 0.347656C5.68134 0.701184 4.51388 1.67544 4.80575 3.68562C4.95374 4.69276 4.60432 5.44092 4.59199 5.4738L4.55088 5.56013L4.46044 5.57658C4.28779 5.60947 4.10691 5.53958 3.94249 5.38337C3.7205 5.1655 3.51907 4.75442 3.51085 4.19536C3.17377 4.54066 2.70925 5.13672 2.70925 5.815C2.70925 6.92902 3.25187 8.12938 3.25598 8.14171L3.40808 8.47879L3.04633 8.40069C2.10085 8.19515 1.74732 7.31544 1.65689 6.59605Z" fill="url(#paint3_linear_1_66)"/>
<path d="M7.69547 1.22656C7.61326 1.8473 7.85991 2.73934 8.25454 3.03942C8.61629 3.31485 9.02326 3.78759 9.05614 4.20277C9.67276 2.9942 8.80539 2.54613 8.30798 2.36936C8.09833 2.29537 7.71192 1.86374 7.69547 1.22656Z" fill="url(#paint4_radial_1_66)"/>
<path d="M5.79826 1.05078C4.43348 3.18838 6.20523 5.4452 5.29264 6.79766C4.38004 8.1501 3.45511 6.90043 3.39346 6.0536C3.39346 6.0536 3.40167 8.79139 4.75412 9.87252C6.10658 10.9536 2.152 10.7193 1.60938 9.39978C1.60938 9.39978 1.60938 13.7942 6.06958 13.7942C10.5298 13.7942 11.2739 9.70398 11.2739 9.70398C11.2739 9.70398 9.65007 11.0893 8.56894 10.0082C8.56894 10.0082 9.37875 8.58995 9.5843 7.13473C9.5843 7.13473 9.02523 7.48826 8.16608 7.35261C8.16608 7.35261 8.64293 5.30955 7.66867 4.63949C6.419 3.78033 5.36252 1.73317 5.79826 1.05078Z" fill="url(#paint5_linear_1_66)"/>
<path d="M6.13917 3.56641C5.4239 4.50777 6.81745 6.92491 5.35401 7.88273C4.54418 8.41302 4.07967 7.77585 4.07967 7.77585C4.07967 7.77585 4.29755 8.75421 5.16903 9.6257C6.04052 10.4972 3.85769 11.677 2.08594 10.1519C2.08594 10.1519 2.69433 13.8146 6.81745 13.198C11.3681 12.5196 11.031 9.13652 11.031 9.13652C11.031 9.13652 9.79777 11.0768 8.04246 10.1478C8.04246 10.1478 9.14827 8.60622 9.14827 7.72241C9.14827 7.72241 8.40011 8.16637 7.54506 7.73885C7.54506 7.73885 7.95203 5.68346 7.46695 5.37515C6.30361 4.6311 6.13917 3.56641 6.13917 3.56641Z" fill="url(#paint6_linear_1_66)"/>
<path opacity="0.5" d="M9.0563 5.91541C9.10151 3.64216 5.64846 3.95458 6.53639 0C6.53639 0 4.21791 0.912595 4.62488 3.71204C4.76464 4.67397 4.42756 5.39335 4.42756 5.39335C4.08637 5.46323 3.55607 4.78495 3.74105 3.7367C3.74105 3.7367 2.52426 4.64519 2.52426 5.81265C2.52426 6.98011 3.08744 8.21746 3.08744 8.21746C1.68566 7.91326 1.82543 6.0223 1.82543 6.0223C1.82543 6.0223 0.9375 7.21031 0.9375 9.45069C0.9375 11.1937 2.90245 13.9767 6.07187 13.9767C9.24129 13.9767 11.7859 11.5184 11.7859 9.33148C11.7859 8.37367 11.4611 7.13633 10.7582 6.46215C10.7582 6.46215 10.8528 8.37367 9.90723 8.28323C9.90723 8.28323 10.6883 5.78799 9.87024 4.64518C9.87024 4.64518 9.4756 5.87843 9.0563 5.91541Z" fill="url(#paint7_radial_1_66)"/>
<path opacity="0.5" d="M9.0563 5.91541C9.10151 3.64216 5.64846 3.95458 6.53639 0C6.53639 0 4.21791 0.912595 4.62488 3.71204C4.76464 4.67397 4.42756 5.39335 4.42756 5.39335C4.08637 5.46323 3.55607 4.78495 3.74105 3.7367C3.74105 3.7367 2.52426 4.64519 2.52426 5.81265C2.52426 6.98011 3.08744 8.21746 3.08744 8.21746C1.68566 7.91326 1.82543 6.0223 1.82543 6.0223C1.82543 6.0223 0.9375 7.21031 0.9375 9.45069C0.9375 11.1937 2.90245 13.9767 6.07187 13.9767C9.24129 13.9767 11.7859 11.5184 11.7859 9.33148C11.7859 8.37367 11.4611 7.13633 10.7582 6.46215C10.7582 6.46215 10.8528 8.37367 9.90723 8.28323C9.90723 8.28323 10.6883 5.78799 9.87024 4.64518C9.87024 4.64518 9.4756 5.87843 9.0563 5.91541Z" fill="url(#paint8_radial_1_66)"/>
<path d="M1.21875 8.49882C1.31329 10.8214 3.22481 13.6045 6.21335 13.6045C9.20189 13.6045 10.6941 10.4514 10.7886 8.6057C10.7886 8.6057 10.2296 9.69095 8.96757 9.90882C7.70556 10.1267 9.0539 7.73833 8.17009 6.32422C8.17009 6.32422 7.38903 8.78658 6.27912 8.87702C5.16921 8.96746 4.22784 7.24914 4.22784 6.32422C4.22784 6.32422 3.54545 7.98909 3.71399 9.31276C3.97297 11.323 1.21875 8.49882 1.21875 8.49882Z" fill="url(#paint9_radial_1_66)"/>
<path opacity="0.5" d="M9.0563 5.91541C9.10151 3.64216 5.64846 3.95458 6.53639 0C6.53639 0 4.21791 0.912595 4.62488 3.71204C4.76464 4.67397 4.42756 5.39335 4.42756 5.39335C4.08637 5.46323 3.55607 4.78495 3.74105 3.7367C3.74105 3.7367 2.52426 4.64519 2.52426 5.81265C2.52426 6.98011 3.08744 8.21746 3.08744 8.21746C1.68566 7.91326 1.82543 6.0223 1.82543 6.0223C1.82543 6.0223 0.9375 7.21031 0.9375 9.45069C0.9375 11.1937 2.90245 13.9767 6.07187 13.9767C9.24129 13.9767 11.7859 11.5184 11.7859 9.33148C11.7859 8.37367 11.4611 7.13633 10.7582 6.46215C10.7582 6.46215 10.8528 8.37367 9.90723 8.28323C9.90723 8.28323 10.6883 5.78799 9.87024 4.64518C9.87024 4.64518 9.4756 5.87843 9.0563 5.91541Z" fill="url(#paint10_radial_1_66)"/>
<path opacity="0.5" d="M9.05785 4.20277C9.97867 2.50502 7.69719 2.2707 7.69307 1.22656C7.69307 1.22656 7.29022 2.30358 8.25214 3.03942C9.0373 3.63548 9.05785 4.20277 9.05785 4.20277Z" fill="url(#paint11_radial_1_66)"/>
<path d="M4.22042 0.953125C3.87499 1.29855 4.09705 2.38832 3.25815 3.28891C3.25815 3.28891 2.88804 1.72212 4.22042 0.953125Z" fill="url(#paint12_radial_1_66)"/>
<path opacity="0.5" d="M4.22042 0.953125C3.87088 1.29855 4.35202 2.72553 3.25815 3.28891C3.25815 3.28891 2.88804 1.72212 4.22042 0.953125Z" fill="url(#paint13_radial_1_66)"/>
<path opacity="0.5" d="M9.0563 5.91541C9.10151 3.64216 5.64846 3.95458 6.53639 0C6.53639 0 4.21791 0.912595 4.62488 3.71204C4.76464 4.67397 4.42756 5.39335 4.42756 5.39335C4.08637 5.46323 3.55607 4.78495 3.74105 3.7367C3.74105 3.7367 2.52426 4.64519 2.52426 5.81265C2.52426 6.98011 3.08744 8.21746 3.08744 8.21746C1.68566 7.91326 1.82543 6.0223 1.82543 6.0223C1.82543 6.0223 0.9375 7.21031 0.9375 9.45069C0.9375 11.1937 2.90245 13.9767 6.07187 13.9767C9.24129 13.9767 11.7859 11.5184 11.7859 9.33148C11.7859 8.37367 11.4611 7.13633 10.7582 6.46215C10.7582 6.46215 10.8528 8.37367 9.90723 8.28323C9.90723 8.28323 10.6883 5.78799 9.87024 4.64518C9.87024 4.64518 9.4756 5.87843 9.0563 5.91541Z" fill="url(#paint14_radial_1_66)"/>
<path opacity="0.25" d="M9.0563 5.91541C9.10151 3.64216 5.64846 3.95458 6.53639 0C6.53639 0 4.21791 0.912595 4.62488 3.71204C4.76464 4.67397 4.42756 5.39335 4.42756 5.39335C4.08637 5.46323 3.55607 4.78495 3.74105 3.7367C3.74105 3.7367 2.52426 4.64519 2.52426 5.81265C2.52426 6.98011 3.08744 8.21746 3.08744 8.21746C1.68566 7.91326 1.82543 6.0223 1.82543 6.0223C1.82543 6.0223 0.9375 7.21031 0.9375 9.45069C0.9375 11.1937 2.90245 13.9767 6.07187 13.9767C9.24129 13.9767 11.7859 11.5184 11.7859 9.33148C11.7859 8.37367 11.4611 7.13633 10.7582 6.46215C10.7582 6.46215 10.8528 8.37367 9.90723 8.28323C9.90723 8.28323 10.6883 5.78799 9.87024 4.64518C9.87024 4.64518 9.4756 5.87843 9.0563 5.91541Z" fill="url(#paint15_radial_1_66)"/>
<path opacity="0.25" d="M9.0563 5.91541C9.10151 3.64216 5.64846 3.95458 6.53639 0C6.53639 0 4.21791 0.912595 4.62488 3.71204C4.76464 4.67397 4.42756 5.39335 4.42756 5.39335C4.08637 5.46323 3.55607 4.78495 3.74105 3.7367C3.74105 3.7367 2.52426 4.64519 2.52426 5.81265C2.52426 6.98011 3.08744 8.21746 3.08744 8.21746C1.68566 7.91326 1.82543 6.0223 1.82543 6.0223C1.82543 6.0223 0.9375 7.21031 0.9375 9.45069C0.9375 11.1937 2.90245 13.9767 6.07187 13.9767C9.24129 13.9767 11.7859 11.5184 11.7859 9.33148C11.7859 8.37367 11.4611 7.13633 10.7582 6.46215C10.7582 6.46215 10.8528 8.37367 9.90723 8.28323C9.90723 8.28323 10.6883 5.78799 9.87024 4.64518C9.87024 4.64518 9.4756 5.87843 9.0563 5.91541Z" fill="url(#paint16_radial_1_66)"/>
<path opacity="0.25" d="M9.0563 5.91541C9.10151 3.64216 5.64846 3.95458 6.53639 0C6.53639 0 4.21791 0.912595 4.62488 3.71204C4.76464 4.67397 4.42756 5.39335 4.42756 5.39335C4.08637 5.46323 3.55607 4.78495 3.74105 3.7367C3.74105 3.7367 2.52426 4.64519 2.52426 5.81265C2.52426 6.98011 3.08744 8.21746 3.08744 8.21746C1.68566 7.91326 1.82543 6.0223 1.82543 6.0223C1.82543 6.0223 0.9375 7.21031 0.9375 9.45069C0.9375 11.1937 2.90245 13.9767 6.07187 13.9767C9.24129 13.9767 11.7859 11.5184 11.7859 9.33148C11.7859 8.37367 11.4611 7.13633 10.7582 6.46215C10.7582 6.46215 10.8528 8.37367 9.90723 8.28323C9.90723 8.28323 10.6883 5.78799 9.87024 4.64518C9.87024 4.64518 9.4756 5.87843 9.0563 5.91541Z" fill="url(#paint17_radial_1_66)"/>
<defs>
<linearGradient id="paint0_linear_1_66" x1="7.05686" y1="14.363" x2="4.53686" y2="-3.89925" gradientUnits="userSpaceOnUse">
<stop stop-color="#FF0000"/>
<stop offset="0.2317" stop-color="#FF1500"/>
<stop offset="0.7367" stop-color="#FF3D00"/>
<stop offset="0.9987" stop-color="#FF4C00"/>
</linearGradient>
<linearGradient id="paint1_linear_1_66" x1="10.0072" y1="13.9571" x2="7.48721" y2="-4.30516" gradientUnits="userSpaceOnUse">
<stop stop-color="#FF0000"/>
<stop offset="0.2317" stop-color="#FF1500"/>
<stop offset="0.7367" stop-color="#FF3D00"/>
<stop offset="0.9987" stop-color="#FF4C00"/>
</linearGradient>
<linearGradient id="paint2_linear_1_66" x1="5.45655" y1="14.5886" x2="2.93563" y2="-3.68029" gradientUnits="userSpaceOnUse">
<stop stop-color="#FF0000"/>
<stop offset="0.2317" stop-color="#FF1500"/>
<stop offset="0.7367" stop-color="#FF3D00"/>
<stop offset="0.9987" stop-color="#FF4C00"/>
</linearGradient>
<linearGradient id="paint3_linear_1_66" x1="6.98895" y1="11.2546" x2="1.48228" y2="-4.47211" gradientUnits="userSpaceOnUse">
<stop stop-color="#FF8000"/>
<stop offset="0.6388" stop-color="#FF5B00"/>
<stop offset="0.9987" stop-color="#FF4C00"/>
</linearGradient>
<radialGradient id="paint4_radial_1_66" cx="0" cy="0" r="1" gradientUnits="userSpaceOnUse" gradientTransform="translate(9.34722 -1.54517) scale(7.33817 7.3382)">
<stop offset="0.00134333" stop-color="#FFED1C" stop-opacity="0.6"/>
<stop offset="0.9477" stop-color="#FFED1C" stop-opacity="0.0264782"/>
<stop offset="0.9914" stop-color="#FFED1C" stop-opacity="0"/>
</radialGradient>
<linearGradient id="paint5_linear_1_66" x1="4.84835" y1="0.760186" x2="6.83946" y2="11.9291" gradientUnits="userSpaceOnUse">
<stop stop-color="#FF8000"/>
<stop offset="0.022669" stop-color="#FE7F02" stop-opacity="0.9773"/>
<stop offset="0.6663" stop-color="#ED582A" stop-opacity="0.3337"/>
<stop offset="1" stop-color="#E74939" stop-opacity="0"/>
</linearGradient>
<linearGradient id="paint6_linear_1_66" x1="6.39425" y1="12.8291" x2="6.82461" y2="4.98689" gradientUnits="userSpaceOnUse">
<stop stop-color="#FFBC47"/>
<stop offset="0.1869" stop-color="#FFB137" stop-opacity="0.8131"/>
<stop offset="0.7223" stop-color="#FF940F" stop-opacity="0.2777"/>
<stop offset="1" stop-color="#FF8900" stop-opacity="0"/>
</linearGradient>
<radialGradient id="paint7_radial_1_66" cx="0" cy="0" r="1" gradientUnits="userSpaceOnUse" gradientTransform="translate(6.28984 10.7104) scale(5.67648 4.60818)">
<stop offset="0.00134333" stop-color="#FFBC47"/>
<stop offset="0.2941" stop-color="#FFBF4B" stop-opacity="0.7068"/>
<stop offset="0.5624" stop-color="#FEC656" stop-opacity="0.4382"/>
<stop offset="0.8201" stop-color="#FCD368" stop-opacity="0.1801"/>
<stop offset="1" stop-color="#FBE07A" stop-opacity="0"/>
</radialGradient>
<radialGradient id="paint8_radial_1_66" cx="0" cy="0" r="1" gradientUnits="userSpaceOnUse" gradientTransform="translate(6.28984 10.4771) scale(5.50157 4.46617)">
<stop offset="0.00134333" stop-color="white"/>
<stop offset="1" stop-color="white" stop-opacity="0"/>
</radialGradient>
<radialGradient id="paint9_radial_1_66" cx="0" cy="0" r="1" gradientUnits="userSpaceOnUse" gradientTransform="translate(3.87921 11.4937) scale(6.75829 7.86868)">
<stop offset="0.00134333" stop-color="#FFED1C" stop-opacity="0.6"/>
<stop offset="0.9477" stop-color="#FFED1C" stop-opacity="0.0264782"/>
<stop offset="0.9914" stop-color="#FFED1C" stop-opacity="0"/>
</radialGradient>
<radialGradient id="paint10_radial_1_66" cx="0" cy="0" r="1" gradientUnits="userSpaceOnUse" gradientTransform="translate(6.29015 10.4765) rotate(92.8876) scale(2.13594 1.73387)">
<stop offset="0.00134333" stop-color="white"/>
<stop offset="1" stop-color="white" stop-opacity="0"/>
</radialGradient>
<radialGradient id="paint11_radial_1_66" cx="0" cy="0" r="1" gradientUnits="userSpaceOnUse" gradientTransform="translate(7.46828 1.22266) scale(2.42447)">
<stop offset="0.00134333" stop-color="#FFED1C"/>
<stop offset="0.1997" stop-color="#FFEE2B" stop-opacity="0.8013"/>
<stop offset="0.5839" stop-color="#FFF254" stop-opacity="0.4167"/>
<stop offset="1" stop-color="#FFF686" stop-opacity="0"/>
</radialGradient>
<radialGradient id="paint12_radial_1_66" cx="0" cy="0" r="1" gradientUnits="userSpaceOnUse" gradientTransform="translate(3.47526 2.3877) rotate(-56.4116) scale(1.96459 0.446166)">
<stop offset="0.00134333" stop-color="#FFED1C" stop-opacity="0.6"/>
<stop offset="0.9477" stop-color="#FFED1C" stop-opacity="0.0264782"/>
<stop offset="0.9914" stop-color="#FFED1C" stop-opacity="0"/>
</radialGradient>
<radialGradient id="paint13_radial_1_66" cx="0" cy="0" r="1" gradientUnits="userSpaceOnUse" gradientTransform="translate(3.86433 0.847142) rotate(95.0573) scale(1.76528 0.710296)">
<stop offset="0.00134333" stop-color="#FFED1C"/>
<stop offset="0.1997" stop-color="#FFEE2B" stop-opacity="0.8013"/>
<stop offset="0.5839" stop-color="#FFF254" stop-opacity="0.4167"/>
<stop offset="1" stop-color="#FFF686" stop-opacity="0"/>
</radialGradient>
<radialGradient id="paint14_radial_1_66" cx="0" cy="0" r="1" gradientUnits="userSpaceOnUse" gradientTransform="translate(6.93212 0.91) scale(7.56507)">
<stop offset="0.00134333" stop-color="#FF4C00"/>
<stop offset="0.135" stop-color="#FF5B0C" stop-opacity="0.8661"/>
<stop offset="0.3941" stop-color="#FF842C" stop-opacity="0.6067"/>
<stop offset="0.7491" stop-color="#FFC45F" stop-opacity="0.2512"/>
<stop offset="1" stop-color="#FFF686" stop-opacity="0"/>
</radialGradient>
<radialGradient id="paint15_radial_1_66" cx="0" cy="0" r="1" gradientUnits="userSpaceOnUse" gradientTransform="translate(10.373 7.03889) scale(4.01542)">
<stop offset="0.00134333" stop-color="#FFED1C"/>
<stop offset="0.1997" stop-color="#FFEE2B" stop-opacity="0.8013"/>
<stop offset="0.5839" stop-color="#FFF254" stop-opacity="0.4167"/>
<stop offset="1" stop-color="#FFF686" stop-opacity="0"/>
</radialGradient>
<radialGradient id="paint16_radial_1_66" cx="0" cy="0" r="1" gradientUnits="userSpaceOnUse" gradientTransform="translate(2.15324 8.47) scale(4.27992)">
<stop offset="0.00134333" stop-color="#FFED1C"/>
<stop offset="0.1997" stop-color="#FFEE2B" stop-opacity="0.8013"/>
<stop offset="0.5839" stop-color="#FFF254" stop-opacity="0.4167"/>
<stop offset="1" stop-color="#FFF686" stop-opacity="0"/>
</radialGradient>
<radialGradient id="paint17_radial_1_66" cx="0" cy="0" r="1" gradientUnits="userSpaceOnUse" gradientTransform="translate(6.22594 7.60496) rotate(86.1102) scale(7.33118 4.45661)">
<stop stop-color="#FF4C00" stop-opacity="0"/>
<stop offset="0.9874" stop-color="#FF4C00" stop-opacity="0.9888"/>
<stop offset="0.9987" stop-color="#FF4C00"/>
</radialGradient>
</defs>
</svg>
