<svg width="88" height="88" viewBox="0 0 88 88" fill="none" xmlns="http://www.w3.org/2000/svg">
<g clip-path="url(#clip0_1_2235)">
<g clip-path="url(#clip1_1_2235)">
<path d="M14.1575 35.1912L13.6831 34.9963C14.0641 34.0683 13.8323 33.4308 12.9873 33.0838L6.11066 30.2599C5.18145 29.8785 4.51095 30.1885 4.09956 31.1901L3.625 30.9954L6.95718 22.8809L9.9715 23.8229L9.79169 24.396C9.22537 24.2743 8.75423 24.2443 8.37784 24.3053C8.00145 24.3664 7.68078 24.5027 7.41524 24.7141C7.1499 24.9259 6.92117 25.2043 6.72966 25.551C6.53814 25.8974 6.34683 26.3025 6.15652 26.7666L5.96159 27.2408C5.69725 27.8845 5.78154 28.2947 6.21386 28.4723L8.99764 29.6156C9.38792 29.7757 9.70641 29.5553 9.95344 28.9541L10.0506 28.717C10.1936 28.369 10.2823 28.0851 10.3173 27.8652C10.3519 27.6456 10.3326 27.4526 10.259 27.2868C10.1856 27.1213 10.0589 26.9641 9.87896 26.8165C9.69951 26.6689 9.45913 26.496 9.15818 26.2987L9.37907 25.761L13.4128 27.417L13.1918 27.9551L12.8756 27.8252C12.728 27.7644 12.5648 27.7191 12.386 27.689C12.2075 27.659 12.021 27.6775 11.8265 27.7457C11.6322 27.8137 11.4368 27.9525 11.2401 28.1611C11.0436 28.37 10.8565 28.6908 10.6789 29.123L10.3801 29.8504C10.302 30.0402 10.4213 30.2 10.7376 30.3301L13.6324 31.5188C14.4761 31.8653 15.1207 31.4953 15.5668 30.4092L16.0412 30.6039L14.1575 35.1912Z" fill="#1E1E1E"/>
<path d="M20.0219 23.6591L19.6706 23.2855C20.4012 22.5983 20.5553 22.0298 20.1326 21.5806L14.5936 15.6924C13.9989 15.0603 13.2907 15.1307 12.4685 15.9042L12.1172 15.5306L15.7288 12.1328L16.0805 12.5066C15.3164 13.2252 15.2319 13.9003 15.8266 14.5324L21.366 20.4211C21.6947 20.7707 22.1289 20.6914 22.6684 20.1836L23.2415 19.6446C23.6231 19.2854 23.9301 18.9458 24.1617 18.6262C24.3932 18.307 24.5616 18.0034 24.6672 17.7163C24.8453 17.1734 24.6145 16.2714 23.9758 15.0096L24.359 14.7432L26.3987 17.6604L20.0219 23.6591Z" fill="#1E1E1E"/>
<path d="M35.056 13.4738C35.6677 13.2911 36.1537 13.0066 36.5142 12.62C36.8746 12.2333 37.1301 11.7738 37.2807 11.2417C37.4312 10.7101 37.4841 10.1211 37.4402 9.47485C37.396 8.82894 37.2697 8.15703 37.0615 7.45917C36.8661 6.80477 36.609 6.19281 36.2902 5.6227C35.9711 5.05278 35.5935 4.5746 35.1569 4.18815C34.7204 3.8017 34.2213 3.53495 33.66 3.3877C33.0986 3.24084 32.4789 3.26841 31.8019 3.47038C31.1793 3.65626 30.693 3.95017 30.343 4.3515C29.9925 4.75304 29.7523 5.22257 29.6216 5.7607C29.4904 6.29843 29.4574 6.88463 29.5216 7.51832C29.5862 8.15261 29.7159 8.79676 29.9112 9.45118C30.1261 10.171 30.3972 10.8205 30.725 11.3993C31.0522 11.9787 31.4321 12.4534 31.864 12.8236C32.2955 13.1934 32.78 13.4408 33.3167 13.5655C33.8536 13.6902 34.4334 13.6597 35.056 13.4738ZM35.1157 14.1517C34.34 14.3834 33.5814 14.452 32.8395 14.3583C32.098 14.265 31.4136 14.0348 30.7867 13.6689C30.1599 13.3026 29.6107 12.8181 29.1394 12.2155C28.6678 11.6129 28.3165 10.9235 28.085 10.148C27.8696 9.42686 27.7855 8.68772 27.8334 7.92971C27.8806 7.17251 28.0601 6.45856 28.3717 5.78846C28.6829 5.11837 29.1212 4.5237 29.6862 4.00409C30.2506 3.48486 30.9369 3.10405 31.7453 2.86284C32.5425 2.62466 33.3188 2.54459 34.0738 2.62265C34.8288 2.70071 35.5235 2.91575 36.1582 3.2676C36.7923 3.61964 37.3473 4.0932 37.8224 4.68866C38.2978 5.28473 38.6547 5.98118 38.8927 6.77862C39.1013 7.47768 39.1771 8.21034 39.1204 8.9768C39.0639 9.7433 38.8786 10.4677 38.5647 11.1502C38.2512 11.8328 37.8054 12.442 37.2276 12.9771C36.6496 13.5124 35.9458 13.9041 35.1157 14.1517Z" fill="#1E1E1E"/>
<path d="M53.4198 14.3182L52.5817 6.28255L48.494 13.0815L47.8456 12.9982L46.6527 2.45489C46.4992 1.66791 46.162 1.21246 45.6406 1.08895L45.7589 0.589844L49.9354 1.579L49.8173 2.0781C49.318 1.95981 48.9697 1.93326 48.7728 1.99823C48.5759 2.06281 48.4525 2.20122 48.4026 2.41224C48.3894 2.46797 48.3878 2.53496 48.3987 2.61401C48.4091 2.69288 48.4208 2.78039 48.433 2.87735L49.1428 10.5641L52.5209 5.13085L52.2786 3.25957C52.2569 3.05538 52.1625 2.88318 51.9968 2.74397C51.8302 2.60476 51.5696 2.49311 51.2148 2.40943L51.3331 1.91012L55.6426 2.93086L55.5243 3.42996C54.7034 3.23543 54.239 3.36639 54.1312 3.82184C54.1206 3.8665 54.1157 3.9357 54.1171 4.02965L54.8001 11.9041L58.3455 5.91159C58.4378 5.76917 58.5052 5.63297 58.548 5.50201C58.5905 5.37105 58.628 5.23908 58.6595 5.10571C58.7989 4.51648 58.4084 4.11293 57.4877 3.89507L57.6062 3.39576L61.2168 4.25094L61.0985 4.75004C60.4218 4.5897 59.7867 5.02041 59.1936 6.04135L54.068 14.4015L53.4198 14.3182Z" fill="#1E1E1E"/>
<path d="M61.3438 17.7624L61.696 17.3896C62.4581 18.11 63.0941 18.2006 63.6039 17.6612L68.9335 12.0224C69.5925 11.3253 69.5119 10.5895 68.6917 9.814L69.0441 9.44141L75.5806 15.6195L73.4836 18.0372L73.0513 17.7229C73.3998 17.2049 73.6168 16.7515 73.7027 16.362C73.7883 15.9725 73.7823 15.6179 73.6847 15.298C73.5865 14.9784 73.4109 14.6787 73.1574 14.3996C72.9034 14.1204 72.6151 13.8281 72.292 13.523L71.9438 13.1938C71.3143 12.5988 70.8235 12.4877 70.4711 12.8605L68.3686 15.0847C68.1336 15.3335 68.1156 15.5517 68.3141 15.7394L68.7369 16.1389C68.9438 16.3345 69.1462 16.5063 69.3443 16.654C69.5418 16.802 69.75 16.8965 69.9689 16.9388C70.188 16.981 70.425 16.9541 70.6805 16.8585C70.9357 16.7624 71.2246 16.5769 71.5478 16.3017L72.0076 16.7362L68.9655 19.9548L68.5056 19.52C68.7619 19.1825 68.9413 18.893 69.0434 18.6524C69.1454 18.4113 69.1796 18.1849 69.1454 17.9721C69.111 17.7596 69.0166 17.5524 68.8617 17.351C68.707 17.1498 68.497 16.9237 68.2318 16.6735L68.0827 16.5327C67.7015 16.1723 67.3821 16.1289 67.1232 16.4018L64.8799 18.7757C64.4334 19.2479 64.5416 19.7968 65.2046 20.4236L65.5897 20.7878C66.1117 21.281 66.5693 21.6391 66.9629 21.8618C67.3561 22.0846 67.7325 22.2052 68.0918 22.2231C68.4511 22.2414 68.8122 22.1786 69.1753 22.0355C69.5376 21.8922 69.9462 21.7053 70.3992 21.4748L70.6408 21.8914L67.9796 24.0349L61.3438 17.7624Z" fill="#1E1E1E"/>
<path d="M78.0416 30.1218C78.1605 30.4424 78.2969 30.7444 78.4503 31.0276C78.6041 31.3111 78.7994 31.5424 79.0364 31.7223C79.2732 31.9019 79.5572 32.0123 79.8889 32.0538C80.22 32.0948 80.6265 32.0265 81.1072 31.848C81.5134 31.6974 81.8234 31.5004 82.037 31.2572C82.2507 31.0138 82.3925 30.7482 82.4625 30.4612C82.5317 30.1737 82.5472 29.8792 82.5086 29.5776C82.4696 29.2758 82.4005 28.9912 82.3016 28.724L82.0161 27.9548C81.8655 27.5484 81.4909 27.4563 80.8924 27.6784L77.83 28.8139C77.6854 28.9162 77.653 29.074 77.7324 29.288L78.0416 30.1218ZM75.7671 37.5123C75.6391 37.5602 75.4727 37.588 75.2694 37.5964C75.0659 37.6051 74.8609 37.5778 74.6553 37.5142C74.4495 37.451 74.255 37.3528 74.0721 37.22C73.8888 37.0873 73.7559 36.9084 73.6726 36.6841C73.431 36.0321 73.3622 35.5103 73.4662 35.1195C73.57 34.728 73.8406 34.3667 74.2767 34.0345C74.6349 33.7555 75.0232 33.4658 75.4406 33.1652C75.8581 32.8645 76.2288 32.5539 76.5537 32.2326C76.8784 31.9115 77.1239 31.5744 77.2913 31.2208C77.4578 30.8671 77.4699 30.4979 77.327 30.1129L77.1488 29.6319C77.0416 29.3437 76.9215 29.1994 76.7881 29.2006L73.309 30.4909C72.6142 30.7484 72.4491 31.3687 72.814 32.3522L72.3328 32.5305L70.6562 28.0092L71.1373 27.8309C71.4861 28.7715 72.0077 29.1131 72.7026 28.8554L80.2858 26.043C80.9699 25.7894 81.1235 25.1549 80.7469 24.1396L81.244 23.9551L81.9874 25.9594C82.1183 26.312 82.2316 26.6101 82.3283 26.8542C82.4247 27.0978 82.521 27.3326 82.617 27.5585C82.7128 27.7843 82.8118 28.0274 82.9146 28.2871C83.0165 28.547 83.1375 28.8638 83.2763 29.2381C83.4466 29.6977 83.5404 30.1552 83.5575 30.6111C83.5744 31.0667 83.5195 31.4851 83.3935 31.8663C83.2676 32.2471 83.0759 32.5829 82.8188 32.8727C82.5615 33.1624 82.2457 33.3773 81.8719 33.5157C81.4977 33.6548 81.1406 33.7078 80.8005 33.6761C80.4601 33.6442 80.1366 33.5421 79.83 33.3703C79.5228 33.1984 79.2311 32.9689 78.9549 32.6825C78.6781 32.3962 78.42 32.0604 78.1798 31.6752L78.1319 31.6933C78.0762 32.2972 77.9267 32.836 77.6827 33.3095C77.4389 33.783 77.1675 34.1418 76.8694 34.3862C76.6793 34.5298 76.4504 34.6996 76.183 34.8961C75.9152 35.0925 75.6686 35.2966 75.4433 35.5077C75.2176 35.7191 75.0387 35.9344 74.9076 36.1532C74.7758 36.3721 74.7499 36.5886 74.8289 36.8026C74.9243 37.0591 75.2341 37.1567 75.7583 37.0961L75.7671 37.5123Z" fill="#1E1E1E"/>
<path d="M10.5114 58.7729C11.2933 58.2314 11.8472 57.6121 12.1737 56.915C12.4997 56.2173 12.5233 55.501 12.2434 54.7661C12.0127 54.1586 11.6683 53.7346 11.2108 53.4943C10.7534 53.2534 10.2794 53.2266 9.78941 53.4127C9.40574 53.5585 9.12249 53.8156 8.93963 54.1842C8.75616 54.5525 8.65216 55.0403 8.62721 55.6477C8.59723 56.403 8.59019 57.0826 8.6069 57.6865C8.62279 58.29 8.58034 58.8273 8.47915 59.2989C8.37796 59.7703 8.18061 60.181 7.8869 60.5304C7.59279 60.8805 7.12628 61.1766 6.48697 61.4196C6.09267 61.5697 5.68027 61.6562 5.25058 61.6798C4.82047 61.7031 4.40485 61.6445 4.00373 61.5045C3.60299 61.3647 3.23082 61.1243 2.88864 60.7853C2.54625 60.4458 2.26562 59.9889 2.04633 59.4135C1.90472 59.0404 1.80896 58.7083 1.75846 58.4163C1.70858 58.124 1.68564 57.8707 1.68906 57.6557C1.69227 57.4411 1.71159 57.2663 1.74559 57.1313C1.77938 56.9963 1.80453 56.9011 1.82043 56.847C1.5939 56.701 1.38368 56.5491 1.18955 56.3913C0.995425 56.2335 0.833483 56.0633 0.703125 55.8814C1.46797 55.4564 2.15114 55.0958 2.75224 54.7999C3.35313 54.504 3.88785 54.2675 4.35678 54.089L4.55754 54.6163C4.08861 54.7949 3.69633 55.0538 3.3805 55.3934C3.06406 55.7333 2.82466 56.1047 2.66152 56.5085C2.49736 56.912 2.40945 57.3298 2.39697 57.7618C2.3843 58.1932 2.44486 58.5849 2.57843 58.9364C2.66393 59.1605 2.7953 59.3939 2.97313 59.6373C3.15076 59.8807 3.36521 60.0921 3.61586 60.2708C3.86673 60.4498 4.14554 60.5753 4.45333 60.6474C4.76072 60.7198 5.08461 60.6908 5.42519 60.5616C5.85066 60.3995 6.17977 60.1434 6.41152 59.7928C6.64327 59.4421 6.75472 58.9823 6.74506 58.4125C6.73501 57.7458 6.71811 57.1089 6.69437 56.502C6.67003 55.8951 6.70503 55.3391 6.79958 54.8337C6.89333 54.3281 7.08263 53.8816 7.36689 53.4927C7.65113 53.1037 8.10196 52.7922 8.71935 52.5574C9.16615 52.3877 9.60071 52.3138 10.0229 52.3358C10.4456 52.3581 10.8389 52.4556 11.203 52.6281C11.5669 52.8007 11.8896 53.0407 12.1712 53.3483C12.4521 53.6556 12.6683 54.0071 12.8181 54.4012C12.9924 54.859 13.0587 55.2819 13.0174 55.67C12.9757 56.0578 12.9439 56.4143 12.9214 56.7402C13.3133 56.969 13.6316 57.2443 13.8761 57.5662C13.4422 57.9018 12.9634 58.2063 12.4392 58.4785C11.9147 58.7515 11.3329 59.0094 10.6936 59.2526L10.5114 58.7729Z" fill="#1E1E1E"/>
<path d="M9.44531 71.6024L9.8185 71.2507C10.6548 72.1387 11.4544 72.2236 12.2183 71.505L17.9579 66.1014C18.265 65.8127 18.227 65.4641 17.8442 65.0577C17.3288 64.5098 16.7341 64.2318 16.061 64.2235C15.3877 64.2153 14.6159 64.4645 13.7463 64.9701L13.4824 64.4903L16.4507 62.3301C16.6056 62.5447 16.7548 62.7447 16.8985 62.9306C17.0417 63.1158 17.1879 63.2877 17.3366 63.4456L21.8491 68.2389C22.0132 68.4131 22.1894 68.5841 22.3779 68.7508C22.5662 68.9176 22.7629 69.0849 22.9678 69.2525L20.3654 71.7022L19.9993 71.4133C21.2339 70.0638 21.2757 68.7776 20.125 67.5551C19.7357 67.1417 19.4004 67.0685 19.1182 67.3338L13.3788 72.7374C12.615 73.4562 12.6552 74.2637 13.4989 75.1605L13.1258 75.5121L9.44531 71.6024Z" fill="#1E1E1E"/>
<path d="M28.8613 75.1331L26.0083 77.7825C25.7808 77.9797 25.644 78.1305 25.5967 78.2343C25.5265 78.3898 25.683 78.5552 26.0673 78.7292L28.0298 79.619C28.341 79.7598 28.5251 79.7683 28.5814 79.6436C28.6052 79.5916 28.6257 79.3948 28.6434 79.0519L28.8613 75.1331ZM26.4253 84.1106L26.6369 83.6436C26.7919 83.6885 26.9542 83.7373 27.1245 83.7893C27.295 83.8416 27.4519 83.8812 27.5961 83.9092C27.74 83.9371 27.8667 83.9472 27.9761 83.9405C28.0855 83.9337 28.1544 83.8993 28.1825 83.8374C28.1908 83.7909 28.2103 83.7279 28.2405 83.6472C28.2703 83.5674 28.2853 83.4585 28.2855 83.3204L28.4529 81.0874C28.461 80.7655 28.2055 80.4867 27.6865 80.2515L25.3657 79.1998C24.9711 79.0207 24.6715 79.0469 24.4668 79.278L23.2068 80.6498C23.1231 80.7236 23.0412 80.8486 22.962 81.0244C22.7463 81.4996 23.0953 81.9441 24.0092 82.3584L23.7622 82.9035L20.2578 81.3149L20.5051 80.7701C20.8155 80.8859 21.1195 80.8985 21.417 80.8086C21.7141 80.7187 22.0155 80.53 22.3208 80.2433L30.0904 73.043L30.4729 73.4421L29.9706 84.366C30.017 84.6501 30.0699 84.8366 30.1297 84.9265C30.1408 84.9564 30.2135 85.0237 30.3477 85.1285C30.4817 85.2331 30.6672 85.3827 30.9042 85.5777L30.6925 86.0448L26.4253 84.1106Z" fill="#1E1E1E"/>
<path d="M39.6826 87.5196L39.6986 87.0068C40.9178 87.0448 41.5435 86.5395 41.5762 85.4912L41.8211 77.6121C41.8342 77.1907 41.5614 76.971 41.0029 76.9539C40.2512 76.9302 39.634 77.1539 39.1518 77.6235C38.6693 78.0936 38.2994 78.8147 38.0411 79.787L37.5156 79.6341L38.09 76.0078C38.3509 76.0501 38.5977 76.0865 38.8307 76.1162C39.0636 76.1466 39.2881 76.1651 39.5048 76.1716L46.0846 76.3758C46.3242 76.3839 46.5695 76.3798 46.8209 76.3649C47.0718 76.35 47.3293 76.3292 47.5928 76.3029L47.4818 79.8751L47.0181 79.9294C46.9384 78.1022 46.0597 77.1623 44.3818 77.1101C43.8142 77.0924 43.525 77.2775 43.5131 77.6648L43.2683 85.5441C43.2357 86.5924 43.8347 87.1352 45.0651 87.1734L45.0494 87.6861L39.6826 87.5196Z" fill="#1E1E1E"/>
<path d="M55.5556 86.1148L55.3942 85.6278C56.422 85.2872 56.8121 84.7428 56.5641 83.9949L54.1652 76.7602C53.8489 75.8069 53.1549 75.5073 52.0838 75.8624L51.9219 75.3753L56.6292 73.8145L56.7906 74.3017C55.7948 74.6318 55.4557 75.2737 55.7718 76.2276L58.1708 83.4618C58.4186 84.2097 59.0622 84.4113 60.1011 84.0666L60.2622 84.5537L55.5556 86.1148Z" fill="#1E1E1E"/>
<path d="M72.7759 76.4027C73.2581 75.9849 73.5848 75.526 73.7542 75.025C73.924 74.5244 73.9682 74.001 73.8865 73.4537C73.8054 72.907 73.6117 72.3486 73.3064 71.7774C73.0003 71.2065 72.6095 70.6458 72.1327 70.0952C71.6855 69.5788 71.1997 69.1264 70.6751 68.7378C70.1496 68.3495 69.6093 68.0682 69.0524 67.8957C68.4958 67.723 67.9311 67.6844 67.3587 67.7814C66.7866 67.8777 66.2332 68.1576 65.6989 68.6198C65.2076 69.0453 64.8846 69.5129 64.7307 70.0227C64.5764 70.5326 64.55 71.0594 64.6521 71.604C64.7536 72.1484 64.9642 72.6958 65.2835 73.2472C65.6027 73.7992 65.9858 74.3329 66.4324 74.8491C66.9243 75.4172 67.4384 75.8978 67.9749 76.2911C68.5116 76.6848 69.0528 76.9614 69.5984 77.1213C70.144 77.2812 70.6871 77.308 71.2278 77.2014C71.7686 77.0943 72.2847 76.8278 72.7759 76.4027ZM73.1088 76.9962C72.4968 77.5262 71.8332 77.9005 71.1189 78.1199C70.4041 78.3394 69.6857 78.4108 68.9637 78.3348C68.2417 78.2587 67.5418 78.0423 66.8645 77.6864C66.1872 77.3307 65.5837 76.8469 65.0538 76.2347C64.5615 75.6661 64.1808 75.0265 63.9131 74.3162C63.6448 73.6062 63.5152 72.8815 63.5238 72.1425C63.5325 71.4039 63.6874 70.6818 63.989 69.9759C64.2901 69.2702 64.7595 68.6414 65.3975 68.089C66.0266 67.5448 66.7015 67.1528 67.422 66.9133C68.1421 66.6746 68.8637 66.585 69.5865 66.645C70.3097 66.7053 71.0104 66.9095 71.6885 67.2569C72.3665 67.6054 72.9779 68.0932 73.5226 68.7222C74 69.2737 74.3705 69.9108 74.6334 70.6328C74.8968 71.3545 75.0257 72.0913 75.0201 72.8428C75.0145 73.5938 74.8584 74.3323 74.5516 75.0575C74.2446 75.7831 73.7638 76.4295 73.1088 76.9962Z" fill="#1E1E1E"/>
<path d="M87.0011 55.6135L75.2682 59.0977L81.6756 61.6343C82.9372 62.1334 83.7836 61.8372 84.2159 60.7455L84.6925 60.934L83.1824 64.7498L82.7053 64.5613C83.0575 63.6712 82.6026 62.9757 81.339 62.4754L74.3153 59.6954C73.87 59.519 73.4392 59.9556 73.0238 61.005L72.5469 60.816L73.6973 57.9093L84.0927 54.8299L78.3884 52.5726C77.2204 52.1099 76.4221 52.4193 75.9941 53.5002L75.5173 53.3119L77.0277 49.4961L77.5044 49.6844C77.1186 50.6599 77.5097 51.3785 78.6773 51.8405L87.0532 55.1562L87.0011 55.6135Z" fill="#1E1E1E"/>
<path d="M82.0553 43.0101C82.0553 43.8602 81.3661 44.5494 80.5159 44.5494C79.6658 44.5494 78.9766 43.8602 78.9766 43.0101C78.9766 42.1599 79.6658 41.4707 80.5159 41.4707C81.3661 41.4707 82.0553 42.1599 82.0553 43.0101Z" fill="#1E1E1E"/>
<path d="M8.83652 43.0101C8.83652 43.8602 8.14731 44.5494 7.29737 44.5494C6.44702 44.5494 5.75781 43.8602 5.75781 43.0101C5.75781 42.1599 6.44702 41.4707 7.29737 41.4707C8.14731 41.4707 8.83652 42.1599 8.83652 43.0101Z" fill="#1E1E1E"/>
<path d="M53.2857 47.7248C56.1301 45.0798 56.1394 41.809 54.635 38.8203C51.8595 33.3059 47.3921 29.8848 40.8967 30.0371C39.5937 30.0679 38.2601 30.7366 37.0314 31.3067C36.1607 31.7108 35.6574 31.7302 35.5355 30.7141C35.3579 29.2361 35.0589 27.7271 35.2014 26.2692C35.3432 24.8175 36.4112 24.2458 37.7446 24.8585C42.4938 27.0417 47.4462 27.0126 52.4811 26.5012C54.3753 26.3086 55.0989 26.6822 55.5853 28.1165C56.8716 31.9084 59.1064 35.1088 61.6669 38.1228C62.0978 38.6299 62.5267 39.1635 62.827 39.7511C63.7675 41.5927 63.4044 43.0772 61.786 44.3399C59.7203 45.9517 57.4618 47.1869 54.9052 47.828C54.453 47.941 53.9778 47.9638 53.5133 48.0284C53.4374 47.9272 53.3616 47.8262 53.2857 47.7248Z" fill="#1E1E1E"/>
<path d="M41.4765 62.1259C38.3093 62.4428 35.0543 63.4817 31.9805 62.2726C29.1917 61.1756 26.6117 59.5023 24.0417 57.9183C22.8702 57.1961 22.6347 55.8435 22.6965 54.4634C22.8375 51.3139 22.9432 48.162 23.0085 45.01C23.0536 42.839 24.3093 41.7205 26.4663 42.0402C26.5986 42.0599 26.728 42.098 26.8591 42.1258C29.822 42.7441 29.8025 42.7424 29.5343 45.6662C29.2484 48.782 29.7409 51.8082 30.7735 54.743C31.346 56.3703 32.5052 57.5783 34.012 58.3504C35.6748 59.2032 37.4274 59.8803 39.1359 60.6452C39.9392 61.0048 40.7312 61.3903 41.5282 61.7637C41.5109 61.8848 41.4937 62.0051 41.4765 62.1259Z" fill="#1E1E1E"/>
<path d="M40.2031 59.9675C42.1396 59.7725 43.93 59.8647 45.5484 59.3819C52.2726 57.3758 57.8514 53.9048 60.5123 46.958C61.1433 45.3107 61.3644 45.2864 62.7298 46.4996C63.3252 47.0286 63.9068 47.6132 64.3443 48.272C65.5751 50.1254 65.2132 52.2413 63.4023 53.4977C60.8044 55.3007 58.5695 57.3965 56.8928 60.1236C55.1238 63.0013 52.4524 63.9109 49.0788 63.6122C45.7391 63.3169 42.8459 62.2706 40.2031 59.9675Z" fill="#1E1E1E"/>
<path d="M31.5538 42.7969C32.9164 47.1382 35.0769 50.7765 39.3067 52.7607C43.5965 54.7729 47.6682 53.3881 51.6941 51.6944C51.8018 51.7783 51.9094 51.862 52.0168 51.9457C51.6093 52.7808 51.3407 53.7287 50.7692 54.4306C48.8867 56.742 46.5048 58.3964 43.5402 58.9681C42.6998 59.13 41.754 58.7637 40.8595 58.6205C40.051 58.4912 39.1971 58.0876 38.4501 58.2371C36.1218 58.7038 34.3684 57.9178 33.1145 56.0473C30.3599 51.9383 30.3484 47.4535 31.5538 42.7969Z" fill="#1E1E1E"/>
<path d="M39.7472 45.9956C35.9832 45.3543 33.5456 41.376 34.482 37.6424C34.6532 36.9603 34.7538 36.2505 34.7956 35.5483C34.9401 33.1193 37.8717 30.7697 40.5467 31C42.3236 31.1527 44.0978 31.3414 45.8717 31.527C47.6653 31.7147 49.6615 33.2926 50.5628 35.5175C48.8022 34.0687 47.1564 33.3154 45.2048 33.7017C43.2736 34.0839 41.7682 35.1415 40.5111 36.6098C37.944 39.6087 37.7171 42.1162 39.7472 45.9956Z" fill="#1E1E1E"/>
<path d="M50.8602 37.2656C54.1443 38.8414 55.2982 42.4302 53.5298 45.4776C52.8579 46.6353 52.1453 47.7695 51.441 48.9078C49.2646 52.4253 45.4335 53.122 42.15 50.5683C41.4483 50.0225 40.9111 49.2497 40.1763 48.7657C38.9141 47.934 37.556 47.2476 36.1953 46.2782C37.9052 46.5673 39.7093 46.6039 41.305 47.1986C44.4779 48.381 46.8996 47.144 49.1471 45.2066C51.3531 43.3041 51.7319 40.8396 50.9487 38.128C50.8874 37.9149 50.8369 37.6983 50.789 37.4815C50.7812 37.4446 50.8147 37.3987 50.8602 37.2656Z" fill="#1E1E1E"/>
<path d="M33.9153 28.3303C30.3558 32.4497 28.0982 36.8298 31.1132 42.2103C28.0586 42.0895 24.8407 39.041 24.1348 35.9146C23.513 33.1612 23.7095 32.8088 26.1993 31.474C28.0482 30.4827 29.8301 29.367 31.6769 28.3703C32.2043 28.0857 32.8525 28.0236 33.4452 27.8594C33.6019 28.0163 33.7586 28.1735 33.9153 28.3303Z" fill="#1E1E1E"/>
<path d="M42.2592 37.1227C42.7914 35.4579 44.0055 34.7921 45.3677 34.3445C46.567 33.9506 47.9048 33.8404 48.6834 34.9615C49.4391 36.0508 50.2494 37.3824 50.2947 38.6343C50.4751 43.6042 48.0965 46.8738 42.9689 46.6446C42.5195 46.6241 42.0756 46.4751 41.6484 46.2964C46.2423 45.0499 47.8778 43.3473 47.4218 40.2084C47.0563 37.6926 45.9204 36.9791 42.2592 37.1227Z" fill="#1E1E1E"/>
<path d="M37.9929 46.0196C33.4835 44.8274 30.1873 40.4209 30.3411 36.1676C30.4413 33.3923 32.5783 31.5624 35.4832 31.9143C32.2166 37.2067 32.1254 42.0064 37.9929 46.0196Z" fill="#1E1E1E"/>
<path d="M42.8805 40.4704C41.4403 40.5 41.0831 41.365 41.0497 42.4115C41.003 43.8804 41.8465 44.365 44.4069 44.4417C43.1339 45.965 40.5464 45.6717 39.6567 43.9033C38.8864 42.3729 39.1423 40.6623 40.3445 39.306C41.4473 38.0616 43.3991 37.5031 44.8694 38.0113C46.0672 38.4251 46.5659 39.3321 46.3969 40.7894C46.2459 42.0976 45.3694 43.0583 44.2287 43.1624C43.3595 43.2421 42.8452 42.9241 42.8774 41.9725C42.8938 41.4966 42.8805 41.0196 42.8805 40.4704Z" fill="#1E1E1E"/>
<path d="M49.5078 56.9836C49.9178 56.4972 50.1683 56.1629 50.4563 55.8647C51.8726 54.3976 52.8017 52.727 52.7353 50.6174C52.7024 49.5667 53.1598 49.068 54.2682 48.8479C55.7698 48.549 57.2134 47.9605 58.7147 47.4863C58.865 50.66 54.2202 55.4629 49.5078 56.9836Z" fill="#1E1E1E"/>
<path d="M35.1406 48.0412C37.6475 46.8624 39.0904 48.4247 42.7645 52.2639C40.7049 53.2527 36.065 50.6828 35.1406 48.0412Z" fill="#1E1E1E"/>
</g>
</g>
<defs>
<clipPath id="clip0_1_2235">
<rect width="88" height="88" fill="white"/>
</clipPath>
<clipPath id="clip1_1_2235">
<rect width="87.0928" height="88" fill="white" transform="translate(0.445312)"/>
</clipPath>
</defs>
</svg>
