<svg width="88" height="88" viewBox="0 0 88 88" fill="none" xmlns="http://www.w3.org/2000/svg">
<g clip-path="url(#clip0_1_2290)">
<path d="M13.7122 35.1912L13.2378 34.9963C13.6188 34.0683 13.387 33.4308 12.542 33.0838L5.66534 30.2599C4.73614 29.8785 4.06564 30.1885 3.65424 31.1901L3.17969 30.9954L6.51187 22.8809L9.52618 23.8229L9.34637 24.396C8.78006 24.2743 8.30892 24.2443 7.93253 24.3053C7.55614 24.3664 7.23547 24.5027 6.96993 24.7141C6.70459 24.9259 6.47586 25.2043 6.28435 25.551C6.09283 25.8974 5.90152 26.3025 5.71121 26.7666L5.51628 27.2408C5.25194 27.8845 5.33623 28.2947 5.76855 28.4723L8.55233 29.6156C8.94261 29.7757 9.2611 29.5553 9.50813 28.9541L9.60529 28.717C9.74827 28.369 9.837 28.0851 9.87201 27.8652C9.90658 27.6456 9.88726 27.4526 9.81368 27.2868C9.74029 27.1213 9.61355 26.9641 9.43365 26.8165C9.2542 26.6689 9.01382 26.496 8.71286 26.2987L8.93375 25.761L12.9674 27.417L12.7465 27.9551L12.4303 27.8252C12.2827 27.7644 12.1195 27.7191 11.9406 27.689C11.7622 27.659 11.5757 27.6775 11.3812 27.7457C11.1868 27.8137 10.9915 27.9525 10.7947 28.1611C10.5982 28.37 10.4112 28.6908 10.2335 29.123L9.93479 29.8504C9.85668 30.0402 9.97598 30.2 10.2922 30.3301L13.1871 31.5188C14.0308 31.8653 14.6754 31.4953 15.1215 30.4092L15.5959 30.6039L13.7122 35.1912Z" fill="white"/>
<path d="M19.5766 23.6591L19.2253 23.2855C19.9559 22.5983 20.11 22.0298 19.6873 21.5806L14.1483 15.6924C13.5536 15.0603 12.8454 15.1307 12.0231 15.9042L11.6719 15.5306L15.2835 12.1328L15.6351 12.5066C14.8711 13.2252 14.7866 13.9003 15.3813 14.5324L20.9207 20.4211C21.2494 20.7707 21.6836 20.6914 22.2231 20.1836L22.7962 19.6446C23.1778 19.2854 23.4848 18.9458 23.7164 18.6262C23.9479 18.307 24.1163 18.0034 24.2219 17.7163C24.3999 17.1734 24.1691 16.2714 23.5305 15.0096L23.9137 14.7432L25.9534 17.6604L19.5766 23.6591Z" fill="white"/>
<path d="M34.6107 13.4738C35.2224 13.2911 35.7084 13.0066 36.0689 12.62C36.4293 12.2333 36.6847 11.7738 36.8354 11.2417C36.9858 10.7101 37.0387 10.1211 36.9949 9.47485C36.9506 8.82894 36.8244 8.15703 36.6162 7.45917C36.4207 6.80477 36.1637 6.19281 35.8448 5.6227C35.5258 5.05278 35.1482 4.5746 34.7116 4.18815C34.2751 3.8017 33.776 3.53495 33.2147 3.3877C32.6533 3.24084 32.0336 3.26841 31.3566 3.47038C30.7339 3.65626 30.2477 3.95017 29.8977 4.3515C29.5472 4.75304 29.307 5.22257 29.1763 5.7607C29.0451 6.29843 29.012 6.88463 29.0763 7.51832C29.1409 8.15261 29.2706 8.79676 29.4659 9.45118C29.6808 10.171 29.9519 10.8205 30.2797 11.3993C30.6069 11.9787 30.9868 12.4534 31.4187 12.8236C31.8502 13.1934 32.3346 13.4408 32.8713 13.5655C33.4082 13.6902 33.988 13.6597 34.6107 13.4738ZM34.6704 14.1517C33.8947 14.3834 33.1361 14.452 32.3942 14.3583C31.6527 14.265 30.9683 14.0348 30.3414 13.6689C29.7146 13.3026 29.1654 12.8181 28.6941 12.2155C28.2225 11.6129 27.8712 10.9235 27.6397 10.148C27.4242 9.42686 27.3401 8.68772 27.388 7.92971C27.4353 7.17251 27.6148 6.45856 27.9264 5.78846C28.2376 5.11837 28.6759 4.5237 29.2408 4.00409C29.8053 3.48486 30.4915 3.10405 31.3 2.86284C32.0972 2.62466 32.8735 2.54459 33.6285 2.62265C34.3835 2.70071 35.0782 2.91575 35.7128 3.2676C36.347 3.61964 36.902 4.0932 37.3771 4.68866C37.8525 5.28473 38.2094 5.98118 38.4474 6.77862C38.6559 7.47768 38.7318 8.21034 38.6751 8.9768C38.6186 9.7433 38.4333 10.4677 38.1194 11.1502C37.8059 11.8328 37.3601 12.442 36.7823 12.9771C36.2043 13.5124 35.5005 13.9041 34.6704 14.1517Z" fill="white"/>
<path d="M52.9745 14.3182L52.1364 6.28255L48.0487 13.0815L47.4003 12.9982L46.2074 2.45489C46.0539 1.66791 45.7167 1.21246 45.1953 1.08895L45.3136 0.589844L49.4901 1.579L49.372 2.0781C48.8727 1.95981 48.5244 1.93326 48.3275 1.99823C48.1306 2.06281 48.0072 2.20122 47.9573 2.41224C47.9441 2.46797 47.9425 2.53496 47.9533 2.61401C47.9638 2.69288 47.9755 2.78039 47.9877 2.87735L48.6974 10.5641L52.0756 5.13085L51.8333 3.25957C51.8116 3.05538 51.7172 2.88318 51.5515 2.74397C51.3849 2.60476 51.1243 2.49311 50.7695 2.40943L50.8878 1.91012L55.1973 2.93086L55.079 3.42996C54.258 3.23543 53.7937 3.36639 53.6859 3.82184C53.6752 3.8665 53.6703 3.9357 53.6718 4.02965L54.3548 11.9041L57.9002 5.91159C57.9925 5.76917 58.0599 5.63297 58.1027 5.50201C58.1452 5.37105 58.1827 5.23908 58.2142 5.10571C58.3536 4.51648 57.9631 4.11293 57.0424 3.89507L57.1609 3.39576L60.7715 4.25094L60.6532 4.75004C59.9765 4.5897 59.3414 5.02041 58.7483 6.04135L53.6227 14.4015L52.9745 14.3182Z" fill="white"/>
<path d="M60.8984 17.7624L61.2507 17.3896C62.0128 18.11 62.6488 18.2006 63.1586 17.6612L68.4882 12.0224C69.1472 11.3253 69.0666 10.5895 68.2463 9.814L68.5988 9.44141L75.1353 15.6195L73.0383 18.0372L72.606 17.7229C72.9545 17.2049 73.1714 16.7515 73.2574 16.362C73.343 15.9725 73.337 15.6179 73.2394 15.298C73.1412 14.9784 72.9656 14.6787 72.7121 14.3996C72.4581 14.1204 72.1698 13.8281 71.8467 13.523L71.4985 13.1938C70.869 12.5988 70.3782 12.4877 70.0258 12.8605L67.9233 15.0847C67.6883 15.3335 67.6703 15.5517 67.8688 15.7394L68.2916 16.1389C68.4985 16.3345 68.7009 16.5063 68.899 16.654C69.0965 16.802 69.3047 16.8965 69.5236 16.9388C69.7427 16.981 69.9797 16.9541 70.2351 16.8585C70.4904 16.7624 70.7793 16.5769 71.1024 16.3017L71.5623 16.7362L68.5201 19.9548L68.0603 19.52C68.3166 19.1825 68.496 18.893 68.5981 18.6524C68.7 18.4113 68.7342 18.1849 68.7 17.9721C68.6657 17.7596 68.5713 17.5524 68.4164 17.351C68.2617 17.1498 68.0517 16.9237 67.7865 16.6735L67.6374 16.5327C67.2562 16.1723 66.9368 16.1289 66.6779 16.4018L64.4346 18.7757C63.9881 19.2479 64.0963 19.7968 64.7593 20.4236L65.1444 20.7878C65.6664 21.281 66.124 21.6391 66.5176 21.8618C66.9108 22.0846 67.2872 22.2052 67.6465 22.2231C68.0057 22.2414 68.3669 22.1786 68.73 22.0355C69.0923 21.8922 69.5008 21.7053 69.9539 21.4748L70.1955 21.8914L67.5343 24.0349L60.8984 17.7624Z" fill="white"/>
<path d="M77.5963 30.1218C77.7152 30.4424 77.8516 30.7444 78.005 31.0276C78.1588 31.3111 78.3541 31.5424 78.5911 31.7223C78.8279 31.9019 79.1119 32.0123 79.4436 32.0538C79.7747 32.0948 80.1812 32.0265 80.6619 31.848C81.0681 31.6974 81.378 31.5004 81.5917 31.2572C81.8053 31.0138 81.9471 30.7482 82.0172 30.4612C82.0864 30.1737 82.1019 29.8792 82.0633 29.5776C82.0243 29.2758 81.9552 28.9912 81.8562 28.724L81.5708 27.9548C81.4201 27.5484 81.0456 27.4563 80.4471 27.6784L77.3847 28.8139C77.2401 28.9162 77.2077 29.074 77.287 29.288L77.5963 30.1218ZM75.3218 37.5123C75.1937 37.5602 75.0273 37.588 74.8241 37.5964C74.6206 37.6051 74.4156 37.5778 74.21 37.5142C74.0042 37.451 73.8097 37.3528 73.6268 37.22C73.4435 37.0873 73.3105 36.9084 73.2273 36.6841C72.9857 36.0321 72.9169 35.5103 73.0209 35.1195C73.1246 34.728 73.3953 34.3667 73.8314 34.0345C74.1896 33.7555 74.5779 33.4658 74.9953 33.1652C75.4128 32.8645 75.7835 32.5539 76.1084 32.2326C76.4331 31.9115 76.6786 31.5744 76.846 31.2208C77.0125 30.8671 77.0246 30.4979 76.8817 30.1129L76.7035 29.6319C76.5963 29.3437 76.4762 29.1994 76.3428 29.2006L72.8637 30.4909C72.1689 30.7484 72.0038 31.3687 72.3687 32.3522L71.8875 32.5305L70.2109 28.0092L70.6919 27.8309C71.0408 28.7715 71.5624 29.1131 72.2573 28.8554L79.8405 26.043C80.5245 25.7894 80.6782 25.1549 80.3016 24.1396L80.7987 23.9551L81.5421 25.9594C81.673 26.312 81.7863 26.6101 81.883 26.8542C81.9793 27.0978 82.0757 27.3326 82.1717 27.5585C82.2675 27.7843 82.3665 28.0274 82.4692 28.2871C82.5712 28.547 82.6922 28.8638 82.831 29.2381C83.0013 29.6977 83.095 30.1552 83.1122 30.6111C83.1291 31.0667 83.0742 31.4851 82.9482 31.8663C82.8222 32.2471 82.6306 32.5829 82.3734 32.8727C82.1162 33.1624 81.8004 33.3773 81.4266 33.5157C81.0524 33.6548 80.6953 33.7078 80.3552 33.6761C80.0148 33.6442 79.6913 33.5421 79.3847 33.3703C79.0775 33.1984 78.7858 32.9689 78.5096 32.6825C78.2328 32.3962 77.9747 32.0604 77.7345 31.6752L77.6866 31.6933C77.6309 32.2972 77.4814 32.836 77.2374 33.3095C76.9936 33.783 76.7222 34.1418 76.4241 34.3862C76.2339 34.5298 76.0051 34.6996 75.7377 34.8961C75.4699 35.0925 75.2233 35.2966 74.998 35.5077C74.7722 35.7191 74.5934 35.9344 74.4622 36.1532C74.3305 36.3721 74.3046 36.5886 74.3836 36.8026C74.4789 37.0591 74.7888 37.1567 75.313 37.0961L75.3218 37.5123Z" fill="white"/>
<path d="M10.0661 58.7729C10.848 58.2314 11.4018 57.6121 11.7283 56.915C12.0544 56.2173 12.078 55.501 11.7981 54.7661C11.5674 54.1586 11.223 53.7346 10.7655 53.4943C10.3081 53.2534 9.83408 53.2266 9.34409 53.4127C8.96042 53.5585 8.67718 53.8156 8.49431 54.1842C8.31085 54.5525 8.20684 55.0403 8.1819 55.6477C8.15192 56.403 8.14488 57.0826 8.16158 57.6865C8.17748 58.29 8.13503 58.8273 8.03384 59.2989C7.93265 59.7703 7.7353 60.181 7.44159 60.5304C7.14748 60.8805 6.68097 61.1766 6.04165 61.4196C5.64736 61.5697 5.23496 61.6562 4.80526 61.6798C4.37516 61.7031 3.95954 61.6445 3.55841 61.5045C3.15768 61.3647 2.78551 61.1243 2.44333 60.7853C2.10093 60.4458 1.8203 59.9889 1.60102 59.4135C1.4594 59.0404 1.36365 58.7083 1.31315 58.4163C1.26326 58.124 1.24033 57.8707 1.24375 57.6557C1.24696 57.4411 1.26628 57.2663 1.30028 57.1313C1.33407 56.9963 1.35922 56.9011 1.37511 56.847C1.14859 56.701 0.938372 56.5491 0.744241 56.3913C0.550112 56.2335 0.38817 56.0633 0.257812 55.8814C1.02266 55.4564 1.70583 55.0958 2.30693 54.7999C2.90782 54.504 3.44253 54.2675 3.91146 54.089L4.11223 54.6163C3.6433 54.7949 3.25102 55.0538 2.93518 55.3934C2.61875 55.7333 2.37935 56.1047 2.2162 56.5085C2.05204 56.912 1.96413 57.3298 1.95166 57.7618C1.93899 58.1932 1.99954 58.5849 2.13312 58.9364C2.21862 59.1605 2.34998 59.3939 2.52781 59.6373C2.70545 59.8807 2.9199 60.0921 3.17055 60.2708C3.42141 60.4498 3.70023 60.5753 4.00802 60.6474C4.31541 60.7198 4.6393 60.6908 4.97988 60.5616C5.40535 60.3995 5.73446 60.1434 5.96621 59.7928C6.19796 59.4421 6.30941 58.9823 6.29975 58.4125C6.2897 57.7458 6.2728 57.1089 6.24905 56.502C6.22471 55.8951 6.25972 55.3391 6.35427 54.8337C6.44802 54.3281 6.63731 53.8816 6.92157 53.4927C7.20582 53.1037 7.65664 52.7922 8.27403 52.5574C8.72084 52.3877 9.15539 52.3138 9.57761 52.3358C10.0003 52.3581 10.3936 52.4556 10.7577 52.6281C11.1216 52.8007 11.4443 53.0407 11.7259 53.3483C12.0068 53.6556 12.223 54.0071 12.3728 54.4012C12.5471 54.859 12.6134 55.2819 12.5721 55.67C12.5304 56.0578 12.4986 56.4143 12.4761 56.7402C12.868 56.969 13.1862 57.2443 13.4308 57.5662C12.9969 57.9018 12.5181 58.2063 11.9939 58.4785C11.4694 58.7515 10.8876 59.0094 10.2483 59.2526L10.0661 58.7729Z" fill="white"/>
<path d="M9 71.6024L9.37318 71.2507C10.2095 72.1387 11.0091 72.2236 11.773 71.505L17.5126 66.1014C17.8197 65.8127 17.7817 65.4641 17.3989 65.0577C16.8835 64.5098 16.2888 64.2318 15.6157 64.2235C14.9424 64.2153 14.1706 64.4645 13.301 64.9701L13.0371 64.4903L16.0054 62.3301C16.1603 62.5447 16.3095 62.7447 16.4532 62.9306C16.5964 63.1158 16.7426 63.2877 16.8913 63.4456L21.4038 68.2389C21.5679 68.4131 21.7441 68.5841 21.9326 68.7508C22.1209 68.9176 22.3176 69.0849 22.5225 69.2525L19.9201 71.7022L19.554 71.4133C20.7886 70.0638 20.8304 68.7776 19.6797 67.5551C19.2904 67.1417 18.9551 67.0685 18.6729 67.3338L12.9335 72.7374C12.1697 73.4562 12.2099 74.2637 13.0536 75.1605L12.6804 75.5121L9 71.6024Z" fill="white"/>
<path d="M28.416 75.1331L25.563 77.7825C25.3355 77.9797 25.1986 78.1305 25.1514 78.2343C25.0812 78.3898 25.2377 78.5552 25.622 78.7292L27.5845 79.619C27.8957 79.7598 28.0798 79.7683 28.1361 79.6436C28.1599 79.5916 28.1804 79.3948 28.1981 79.0519L28.416 75.1331ZM25.98 84.1106L26.1916 83.6436C26.3465 83.6885 26.5088 83.7373 26.6792 83.7893C26.8497 83.8416 27.0065 83.8812 27.1508 83.9092C27.2947 83.9371 27.4214 83.9472 27.5308 83.9405C27.6402 83.9337 27.7091 83.8993 27.7372 83.8374C27.7455 83.7909 27.765 83.7279 27.7952 83.6472C27.8249 83.5674 27.84 83.4585 27.8402 83.3204L28.0076 81.0874C28.0156 80.7655 27.7602 80.4867 27.2412 80.2515L24.9204 79.1998C24.5258 79.0207 24.2262 79.0469 24.0214 79.278L22.7615 80.6498C22.6778 80.7236 22.5959 80.8486 22.5166 81.0244C22.301 81.4996 22.65 81.9441 23.5639 82.3584L23.3169 82.9035L19.8125 81.3149L20.0598 80.7701C20.3702 80.8859 20.6742 80.8985 20.9717 80.8086C21.2688 80.7187 21.5701 80.53 21.8755 80.2433L29.6451 73.043L30.0276 73.4421L29.5253 84.366C29.5717 84.6501 29.6246 84.8366 29.6844 84.9265C29.6954 84.9564 29.7682 85.0237 29.9024 85.1285C30.0364 85.2331 30.2219 85.3827 30.4589 85.5777L30.2472 86.0448L25.98 84.1106Z" fill="white"/>
<path d="M39.2373 87.5196L39.2533 87.0068C40.4725 87.0448 41.0982 86.5395 41.1309 85.4912L41.3758 77.6121C41.3888 77.1907 41.116 76.971 40.5576 76.9539C39.8058 76.9302 39.1887 77.1539 38.7065 77.6235C38.224 78.0936 37.8541 78.8147 37.5958 79.787L37.0703 79.6341L37.6447 76.0078C37.9056 76.0501 38.1524 76.0865 38.3854 76.1162C38.6183 76.1466 38.8428 76.1651 39.0595 76.1716L45.6393 76.3758C45.8789 76.3839 46.1242 76.3798 46.3756 76.3649C46.6265 76.35 46.884 76.3292 47.1475 76.3029L47.0364 79.8751L46.5728 79.9294C46.4931 78.1022 45.6144 77.1623 43.9365 77.1101C43.3689 77.0924 43.0797 77.2775 43.0678 77.6648L42.823 85.5441C42.7904 86.5924 43.3894 87.1352 44.6198 87.1734L44.6041 87.6861L39.2373 87.5196Z" fill="white"/>
<path d="M55.1103 86.1148L54.9489 85.6278C55.9767 85.2872 56.3668 84.7428 56.1188 83.9949L53.7198 76.7602C53.4036 75.8069 52.7096 75.5073 51.6385 75.8624L51.4766 75.3753L56.1839 73.8145L56.3453 74.3017C55.3495 74.6318 55.0104 75.2737 55.3265 76.2276L57.7255 83.4618C57.9733 84.2097 58.6169 84.4113 59.6558 84.0666L59.8169 84.5537L55.1103 86.1148Z" fill="white"/>
<path d="M72.3306 76.4027C72.8128 75.9849 73.1395 75.526 73.3088 75.025C73.4787 74.5244 73.5229 74.001 73.4412 73.4537C73.3601 72.907 73.1664 72.3486 72.861 71.7774C72.555 71.2065 72.1642 70.6458 71.6874 70.0952C71.2402 69.5788 70.7544 69.1264 70.2298 68.7378C69.7043 68.3495 69.164 68.0682 68.6071 67.8957C68.0504 67.723 67.4858 67.6844 66.9134 67.7814C66.3413 67.8777 65.7879 68.1576 65.2536 68.6198C64.7623 69.0453 64.4393 69.5129 64.2854 70.0227C64.1311 70.5326 64.1047 71.0594 64.2067 71.604C64.3083 72.1484 64.5189 72.6958 64.8382 73.2472C65.1574 73.7992 65.5404 74.3329 65.9871 74.8491C66.479 75.4172 66.9931 75.8978 67.5296 76.2911C68.0663 76.6848 68.6075 76.9614 69.1531 77.1213C69.6987 77.2812 70.2418 77.308 70.7825 77.2014C71.3233 77.0943 71.8393 76.8278 72.3306 76.4027ZM72.6635 76.9962C72.0515 77.5262 71.3879 77.9005 70.6736 78.1199C69.9588 78.3394 69.2403 78.4108 68.5184 78.3348C67.7964 78.2587 67.0965 78.0423 66.4192 77.6864C65.7418 77.3307 65.1384 76.8469 64.6085 76.2347C64.1162 75.6661 63.7355 75.0265 63.4678 74.3162C63.1995 73.6062 63.0699 72.8815 63.0785 72.1425C63.0872 71.4039 63.2421 70.6818 63.5437 69.9759C63.8448 69.2702 64.3142 68.6414 64.9522 68.089C65.5813 67.5448 66.2562 67.1528 66.9767 66.9133C67.6968 66.6746 68.4184 66.585 69.1412 66.645C69.8644 66.7053 70.5651 66.9095 71.2432 67.2569C71.9212 67.6054 72.5325 68.0932 73.0773 68.7222C73.5547 69.2737 73.9252 69.9108 74.1881 70.6328C74.4515 71.3545 74.5804 72.0913 74.5748 72.8428C74.5691 73.5938 74.4131 74.3323 74.1063 75.0575C73.7993 75.7831 73.3185 76.4295 72.6635 76.9962Z" fill="white"/>
<path d="M86.5558 55.6135L74.8229 59.0977L81.2302 61.6343C82.4919 62.1334 83.3383 61.8372 83.7705 60.7455L84.2472 60.934L82.7371 64.7498L82.26 64.5613C82.6122 63.6712 82.1572 62.9757 80.8937 62.4754L73.87 59.6954C73.4246 59.519 72.9939 59.9556 72.5785 61.005L72.1016 60.816L73.252 57.9093L83.6474 54.8299L77.9431 52.5726C76.7751 52.1099 75.9768 52.4193 75.5488 53.5002L75.072 53.3119L76.5824 49.4961L77.0591 49.6844C76.6733 50.6599 77.0644 51.3785 78.232 51.8405L86.6079 55.1562L86.5558 55.6135Z" fill="white"/>
<path d="M81.61 43.0101C81.61 43.8602 80.9208 44.5494 80.0706 44.5494C79.2205 44.5494 78.5312 43.8602 78.5312 43.0101C78.5312 42.1599 79.2205 41.4707 80.0706 41.4707C80.9208 41.4707 81.61 42.1599 81.61 43.0101Z" fill="#F599A7"/>
<path d="M8.39121 43.0101C8.39121 43.8602 7.702 44.5494 6.85206 44.5494C6.00171 44.5494 5.3125 43.8602 5.3125 43.0101C5.3125 42.1599 6.00171 41.4707 6.85206 41.4707C7.702 41.4707 8.39121 42.1599 8.39121 43.0101Z" fill="#F599A7"/>
<path d="M52.8404 47.7248C55.6848 45.0798 55.6941 41.809 54.1897 38.8203C51.4142 33.3059 46.9468 29.8848 40.4514 30.0371C39.1484 30.0679 37.8148 30.7366 36.5861 31.3067C35.7154 31.7108 35.2121 31.7302 35.0902 30.7141C34.9125 29.2361 34.6136 27.7271 34.7561 26.2692C34.8978 24.8175 35.9659 24.2458 37.2993 24.8585C42.0484 27.0417 47.0008 27.0126 52.0358 26.5012C53.93 26.3086 54.6536 26.6822 55.14 28.1165C56.4263 31.9084 58.6611 35.1088 61.2216 38.1228C61.6525 38.6299 62.0814 39.1635 62.3817 39.7511C63.3222 41.5927 62.9591 43.0772 61.3407 44.3399C59.275 45.9517 57.0165 47.1869 54.4599 47.828C54.0076 47.941 53.5324 47.9638 53.0679 48.0284C52.9921 47.9272 52.9163 47.8262 52.8404 47.7248Z" fill="#F599A7"/>
<path d="M41.0312 62.1259C37.864 62.4428 34.609 63.4817 31.5352 62.2726C28.7464 61.1756 26.1664 59.5023 23.5964 57.9183C22.4248 57.1961 22.1894 55.8435 22.2512 54.4634C22.3922 51.3139 22.4979 48.162 22.5632 45.01C22.6083 42.839 23.864 41.7205 26.021 42.0402C26.1533 42.0599 26.2827 42.098 26.4138 42.1258C29.3767 42.7441 29.3572 42.7424 29.089 45.6662C28.8031 48.782 29.2956 51.8082 30.3282 54.743C30.9007 56.3703 32.0598 57.5783 33.5666 58.3504C35.2295 59.2032 36.982 59.8803 38.6906 60.6452C39.4938 61.0048 40.2858 61.3903 41.0829 61.7637C41.0656 61.8848 41.0484 62.0051 41.0312 62.1259Z" fill="#F599A7"/>
<path d="M39.7578 59.9675C41.6943 59.7725 43.4847 59.8647 45.1031 59.3819C51.8272 57.3758 57.4061 53.9048 60.0669 46.958C60.698 45.3107 60.9191 45.2864 62.2845 46.4996C62.8799 47.0286 63.4615 47.6132 63.899 48.272C65.1298 50.1254 64.7679 52.2413 62.957 53.4977C60.3591 55.3007 58.1242 57.3965 56.4475 60.1236C54.6784 63.0013 52.0071 63.9109 48.6335 63.6122C45.2938 63.3169 42.4006 62.2706 39.7578 59.9675Z" fill="#F599A7"/>
<path d="M31.1085 42.7969C32.4711 47.1382 34.6316 50.7765 38.8614 52.7607C43.1512 54.7729 47.2229 53.3881 51.2488 51.6944C51.3565 51.7783 51.4641 51.862 51.5715 51.9457C51.164 52.7808 50.8954 53.7287 50.3239 54.4306C48.4414 56.742 46.0595 58.3964 43.0949 58.9681C42.2545 59.13 41.3086 58.7637 40.4142 58.6205C39.6057 58.4912 38.7517 58.0876 38.0048 58.2371C35.6765 58.7038 33.9231 57.9178 32.6692 56.0473C29.9146 51.9383 29.9031 47.4535 31.1085 42.7969Z" fill="#F599A7"/>
<path d="M39.3019 45.9956C35.5379 45.3543 33.1003 41.376 34.0367 37.6424C34.2079 36.9603 34.3085 36.2505 34.3503 35.5483C34.4948 33.1193 37.4264 30.7697 40.1014 31C41.8783 31.1527 43.6525 31.3414 45.4264 31.527C47.22 31.7147 49.2162 33.2926 50.1175 35.5175C48.3568 34.0687 46.7111 33.3154 44.7595 33.7017C42.8283 34.0839 41.3229 35.1415 40.0658 36.6098C37.4986 39.6087 37.2718 42.1162 39.3019 45.9956Z" fill="#F599A7"/>
<path d="M50.4149 37.2656C53.699 38.8414 54.8529 42.4302 53.0845 45.4776C52.4126 46.6353 51.7 47.7695 50.9957 48.9078C48.8193 52.4253 44.9882 53.122 41.7047 50.5683C41.003 50.0225 40.4658 49.2497 39.731 48.7657C38.4688 47.934 37.1107 47.2476 35.75 46.2782C37.4599 46.5673 39.264 46.6039 40.8597 47.1986C44.0326 48.381 46.4542 47.144 48.7018 45.2066C50.9078 43.3041 51.2866 40.8396 50.5034 38.128C50.4421 37.9149 50.3916 37.6983 50.3437 37.4815C50.3359 37.4446 50.3694 37.3987 50.4149 37.2656Z" fill="#F599A7"/>
<path d="M33.47 28.3303C29.9105 32.4497 27.6529 36.8298 30.6679 42.2103C27.6133 42.0895 24.3954 39.041 23.6895 35.9146C23.0677 33.1612 23.2642 32.8088 25.7539 31.474C27.6029 30.4827 29.3848 29.367 31.2315 28.3703C31.759 28.0857 32.4072 28.0236 32.9999 27.8594C33.1566 28.0163 33.3132 28.1735 33.47 28.3303Z" fill="#F599A7"/>
<path d="M41.8139 37.1227C42.3461 35.4579 43.5602 34.7921 44.9223 34.3445C46.1217 33.9506 47.4595 33.8404 48.238 34.9615C48.9938 36.0508 49.8041 37.3824 49.8493 38.6343C50.0298 43.6042 47.6512 46.8738 42.5236 46.6446C42.0741 46.6241 41.6303 46.4751 41.2031 46.2964C45.797 45.0499 47.4325 43.3473 46.9765 40.2084C46.611 37.6926 45.4751 36.9791 41.8139 37.1227Z" fill="#F599A7"/>
<path d="M37.5476 46.0196C33.0382 44.8274 29.742 40.4209 29.8958 36.1676C29.9959 33.3923 32.133 31.5624 35.0379 31.9143C31.7713 37.2067 31.6801 42.0064 37.5476 46.0196Z" fill="#F599A7"/>
<path d="M42.4352 40.4704C40.995 40.5 40.6378 41.365 40.6044 42.4115C40.5576 43.8804 41.4012 44.365 43.9616 44.4417C42.6886 45.965 40.101 45.6717 39.2114 43.9033C38.4411 42.3729 38.697 40.6623 39.8992 39.306C41.002 38.0616 42.9538 37.5031 44.4241 38.0113C45.6219 38.4251 46.1206 39.3321 45.9516 40.7894C45.8005 42.0976 44.9241 43.0583 43.7834 43.1624C42.9141 43.2421 42.3999 42.9241 42.4321 41.9725C42.4485 41.4966 42.4352 41.0196 42.4352 40.4704Z" fill="#F599A7"/>
<path d="M49.0625 56.9836C49.4725 56.4972 49.723 56.1629 50.011 55.8647C51.4273 54.3976 52.3564 52.727 52.29 50.6174C52.2571 49.5667 52.7145 49.068 53.8229 48.8479C55.3245 48.549 56.7681 47.9605 58.2694 47.4863C58.4197 50.66 53.7749 55.4629 49.0625 56.9836Z" fill="#F599A7"/>
<path d="M34.6953 48.0412C37.2022 46.8624 38.6451 48.4247 42.3192 52.2639C40.2596 53.2527 35.6197 50.6828 34.6953 48.0412Z" fill="#F599A7"/>
</g>
<defs>
<clipPath id="clip0_1_2290">
<rect width="87.0928" height="88" fill="white"/>
</clipPath>
</defs>
</svg>
